<svg width="106" height="34" viewBox="0 0 106 34" fill="none" xmlns="http://www.w3.org/2000/svg">
<path d="M19.8742 28.9222C19.0054 30.3894 17.8223 31.5422 16.3247 32.3807C14.8271 33.2191 13.1639 33.6383 11.3385 33.6383C9.75302 33.6383 8.28589 33.3171 6.94045 32.6748C5.59163 32.0325 4.42536 31.1568 3.43488 30.048C2.44777 28.9424 1.67702 27.6442 1.12262 26.1635C0.568216 24.6827 0.291016 23.087 0.291016 21.3797C0.291016 19.6724 0.554694 18.1849 1.07867 16.7312C1.60265 15.2808 2.33622 13.9995 3.27937 12.8907C4.22253 11.7852 5.32795 10.9095 6.6024 10.2638C7.87347 9.62147 9.27299 9.3003 10.801 9.3003C12.6873 9.3003 14.3505 9.7567 15.7872 10.6695C17.2239 11.5857 18.3462 12.7419 19.1542 14.1517C18.8364 10.1658 18.5153 6.17649 18.1975 2.19059C20.1649 1.59558 22.129 1.00395 24.0965 0.408936V27.6409M13.1335 29.4158C13.7893 29.4158 14.4418 29.3042 15.0976 29.0811C15.7534 28.8613 16.3551 28.557 16.8994 28.1683C17.4436 27.7795 17.9169 27.3231 18.3124 26.7991C18.708 26.275 18.9885 25.7071 19.1508 25.0985V19.4121C18.904 18.7224 18.5592 18.0869 18.1062 17.502C17.6566 16.9205 17.1428 16.4235 16.5715 16.0077C16.0002 15.5919 15.3883 15.2741 14.7494 15.0543C14.1105 14.8346 13.4614 14.723 12.8056 14.723C11.9064 14.723 11.0782 14.9292 10.3277 15.3451C9.57724 15.7609 8.92818 16.3154 8.38392 17.005C7.83966 17.6947 7.40696 18.4858 7.09595 19.3716C6.78157 20.2573 6.62606 21.1701 6.62606 22.11C6.62606 23.1039 6.79509 24.0471 7.13652 24.9329C7.47795 25.8186 7.94784 26.5928 8.54957 27.2555C9.15129 27.9215 9.84091 28.4455 10.6184 28.8309C11.3959 29.2197 12.2377 29.4124 13.1369 29.4124L13.1335 29.4158Z" fill="#132B24"/>
<path d="M41.0225 33.6349C39.1971 33.6349 37.5339 33.3137 36.0363 32.6714C34.5387 32.029 33.2609 31.1534 32.1961 30.0445C31.1346 28.939 30.3097 27.651 29.7249 26.1837C29.1401 24.7165 28.8494 23.1579 28.8494 21.5115C28.8494 19.8651 29.1401 18.2998 29.7249 16.819C30.3097 15.3349 31.1312 14.0333 32.1961 12.9109C33.2575 11.7851 34.5387 10.9061 36.0363 10.2604C37.5339 9.61805 39.2106 9.29688 41.0665 9.29688C42.9224 9.29688 44.545 9.62819 46.029 10.2841C47.5097 10.9433 48.7774 11.8189 49.822 12.9109C50.8699 14.0029 51.6711 15.274 52.2255 16.7278C52.7765 18.1815 53.0537 19.6994 53.0537 21.2884C53.0537 21.6467 53.0402 21.9848 53.0098 22.2992C52.9793 22.6136 52.9489 22.874 52.9185 23.0836H34.1027C34.1939 24.1316 34.4407 25.0748 34.843 25.9133C35.2486 26.7517 35.7726 27.4785 36.4149 28.0938C37.0572 28.7091 37.7908 29.1791 38.6156 29.5104C39.4405 29.8383 40.2991 30.004 41.1983 30.004C41.8575 30.004 42.5066 29.9194 43.1522 29.7572C43.7945 29.5915 44.3895 29.3515 44.927 29.0371C45.4645 28.7227 45.9445 28.3406 46.3637 27.8944C46.7829 27.4447 47.1108 26.9511 47.3508 26.4102L51.573 27.6239C50.7651 29.3887 49.4231 30.8322 47.5536 31.9546C45.6808 33.0804 43.5038 33.6383 41.0191 33.6383L41.0225 33.6349ZM48.1655 19.669C48.0742 18.6818 47.8275 17.769 47.4252 16.9306C47.0195 16.0922 46.5057 15.3822 45.8769 14.7974C45.2481 14.2125 44.5146 13.7561 43.6762 13.4281C42.8379 13.1002 41.9522 12.9346 41.0259 12.9346C40.0997 12.9346 39.2207 13.1002 38.3993 13.4281C37.5778 13.7561 36.851 14.2125 36.2188 14.7974C35.5901 15.3822 35.083 16.0922 34.6942 16.9306C34.3021 17.769 34.0655 18.6818 33.9742 19.669H48.1655Z" fill="#132B24"/>
<path d="M67.7457 33.6349C65.9202 33.6349 64.257 33.3137 62.7594 32.6714C61.2619 32.029 59.9841 31.1534 58.9192 30.0445C57.8577 28.939 57.0329 27.651 56.4481 26.1837C55.8632 24.7165 55.5725 23.1579 55.5725 21.5115C55.5725 19.8651 55.8632 18.2998 56.4481 16.819C57.0329 15.3349 57.8543 14.0333 58.9192 12.9109C59.9807 11.7851 61.2619 10.9061 62.7594 10.2604C64.257 9.61805 65.9337 9.29688 67.7896 9.29688C69.6455 9.29688 71.2681 9.62819 72.7522 10.2841C74.2328 10.9433 75.5005 11.8189 76.5451 12.9109C77.5931 14.0029 78.3942 15.274 78.9486 16.7278C79.4996 18.1815 79.7769 19.6994 79.7769 21.2884C79.7769 21.6467 79.7633 21.9848 79.7329 22.2992C79.7025 22.6136 79.6721 22.874 79.6416 23.0836H60.8258C60.9171 24.1316 61.1638 25.0748 61.5661 25.9133C61.9718 26.7517 62.4958 27.4785 63.1381 28.0938C63.7804 28.7091 64.5139 29.1791 65.3388 29.5104C66.1636 29.8383 67.0222 30.004 67.9215 30.004C68.5807 30.004 69.2297 29.9194 69.8754 29.7572C70.5177 29.5915 71.1126 29.3515 71.6501 29.0371C72.1876 28.7227 72.6677 28.3406 73.0869 27.8944C73.506 27.4447 73.8339 26.9511 74.074 26.4102L78.2962 27.6239C77.4883 29.3887 76.1462 30.8322 74.2768 31.9546C72.404 33.0804 70.227 33.6383 67.7423 33.6383L67.7457 33.6349ZM74.8853 19.669C74.794 18.6818 74.5472 17.769 74.1449 16.9306C73.7393 16.0922 73.2255 15.3822 72.5967 14.7974C71.9679 14.2125 71.2343 13.7561 70.396 13.4281C69.5576 13.1002 68.6719 12.9346 67.7457 12.9346C66.8194 12.9346 65.9405 13.1002 65.119 13.4281C64.2942 13.7561 63.5708 14.2125 62.9386 14.7974C62.3098 15.3822 61.8028 16.0922 61.414 16.9306C61.0219 17.769 60.7852 18.6818 60.694 19.669H74.8853Z" fill="#132B24"/>
<path d="M83.8674 0.402344H87.3797C88.1674 0.402344 88.8097 1.04131 88.8097 1.8324V26.4071C88.8097 27.2759 89.0362 27.9554 89.4824 28.449C89.932 28.9426 90.5608 29.1894 91.3687 29.1894C91.6966 29.1894 92.0786 29.1286 92.5113 29.0102C92.5113 29.0102 92.7953 28.9392 93.7486 28.6045C93.9886 29.8926 94.2286 31.1807 94.4652 32.4687C93.7486 32.7967 92.8933 33.0604 91.9062 33.2531C90.9191 33.4458 90.0334 33.5438 89.2559 33.5438C87.5488 33.5438 86.2236 33.0807 85.2804 32.1509C84.3373 31.2246 83.864 29.9027 83.864 28.1989V0.402344H83.8674Z" fill="#132B24"/>
<path d="M104.485 5.46984C103.437 4.68551 102.579 3.50901 102.004 2.07895L101.331 0.4021L100.662 2.07895C100.091 3.51239 99.2319 4.68889 98.1874 5.4766L96.9636 6.39279L98.1874 7.30897C99.2353 8.0933 100.094 9.2698 100.669 10.6999L101.341 12.3767L102.011 10.6999C102.582 9.26642 103.441 8.08992 104.485 7.30221L105.709 6.38602L104.485 5.46984Z" fill="#132B24"/>
<path d="M95.0667 27.5224L98.8663 14.1042H103.805L95.9321 31.3528L95.0667 27.5224Z" fill="#132B24"/>
<path d="M81.1383 4.93593H88.8053V1.83916C88.8053 1.04469 88.163 0.402344 87.3686 0.402344H78.8159L81.1383 4.93593Z" fill="#132B24"/>
<path d="M28.1258 26.4035L19.8706 28.9188L19.8909 31.9649C19.8909 32.7593 20.5332 33.4017 21.3276 33.4017H25.4383L28.1258 26.4001V26.4035Z" fill="#132B24"/>
<path d="M81.1384 4.93572L78.8262 0.361572L87.3957 0.402141C88.1766 0.425806 88.8189 1.05124 88.8054 1.87277V3.49891" fill="#132B24"/>
</svg>
