<svg width="110" height="35" viewBox="0 0 110 35" fill="none" xmlns="http://www.w3.org/2000/svg">
<path d="M20.4345 29.802C19.528 31.3331 18.2933 32.536 16.7307 33.4109C15.168 34.2858 13.4325 34.7232 11.5277 34.7232C9.87333 34.7232 8.34242 34.3881 6.93849 33.7178C5.53104 33.0475 4.31407 32.1339 3.28053 30.9768C2.25051 29.8232 1.44625 28.4686 0.867752 26.9234C0.289251 25.3783 0 23.7132 0 21.9317C0 20.1502 0.275141 18.598 0.821895 17.0811C1.36865 15.5677 2.13411 14.2307 3.11826 13.0736C4.10242 11.9201 5.2559 11.0064 6.58575 10.3326C7.91207 9.66233 9.37243 9.3272 10.9668 9.3272C12.9352 9.3272 14.6707 9.80344 16.1698 10.7559C17.669 11.7119 18.8401 12.9184 19.6832 14.3895C19.3516 10.2303 19.0165 6.06759 18.6849 1.90842C20.7379 1.28754 22.7873 0.670194 24.8403 0.0493164V28.465M13.4008 30.3171C14.0851 30.3171 14.7659 30.2007 15.4502 29.9678C16.1345 29.7385 16.7624 29.4211 17.3304 29.0154C17.8983 28.6097 18.3921 28.1334 18.8048 27.5866C19.2175 27.0398 19.5103 26.4472 19.6796 25.8122V19.8786C19.4221 19.1589 19.0623 18.4957 18.5897 17.8854C18.1205 17.2787 17.5843 16.7601 16.9882 16.3262C16.3921 15.8923 15.7536 15.5607 15.0869 15.3314C14.4202 15.1021 13.7429 14.9857 13.0586 14.9857C12.1203 14.9857 11.2561 15.2008 10.473 15.6348C9.6899 16.0687 9.01263 16.6472 8.44471 17.3669C7.87679 18.0865 7.42528 18.912 7.10075 19.8363C6.7727 20.7605 6.61044 21.713 6.61044 22.6937C6.61044 23.7309 6.78681 24.7151 7.14308 25.6393C7.49936 26.5636 7.98967 27.3715 8.61756 28.0629C9.24544 28.7578 9.96504 29.3046 10.7764 29.7068C11.5877 30.1125 12.466 30.3136 13.4043 30.3136L13.4008 30.3171Z" fill="#F2F8F7"/>
<path d="M42.5021 34.7197C40.5973 34.7197 38.8618 34.3846 37.2992 33.7143C35.7365 33.0441 34.4031 32.1304 33.292 30.9733C32.1844 29.8197 31.3237 28.4757 30.7134 26.9447C30.1032 25.4136 29.7998 23.7874 29.7998 22.0694C29.7998 20.3514 30.1032 18.718 30.7134 17.1729C31.3237 15.6242 32.1808 14.2661 33.292 13.0949C34.3996 11.9201 35.7365 11.0029 37.2992 10.3291C38.8618 9.65886 40.6114 9.32373 42.548 9.32373C44.4846 9.32373 46.1777 9.66945 47.7263 10.3538C49.2713 11.0417 50.5941 11.9554 51.6841 13.0949C52.7776 14.2343 53.6136 15.5607 54.1921 17.0776C54.7671 18.5946 55.0563 20.1785 55.0563 21.8365C55.0563 22.2105 55.0422 22.5632 55.0105 22.8913C54.9787 23.2194 54.947 23.491 54.9152 23.7097H35.2815C35.3767 24.8033 35.6342 25.7876 36.054 26.6624C36.4773 27.5373 37.024 28.2958 37.6942 28.9378C38.3644 29.5799 39.1299 30.0702 39.9906 30.4159C40.8513 30.7581 41.7473 30.931 42.6856 30.931C43.3734 30.931 44.0507 30.8428 44.7244 30.6734C45.3947 30.5006 46.0155 30.2501 46.5763 29.922C47.1372 29.594 47.6381 29.1953 48.0755 28.7297C48.5129 28.2605 48.8551 27.7454 49.1055 27.181L53.5113 28.4475C52.6682 30.2889 51.2679 31.7953 49.3172 32.9665C47.363 34.1412 45.0913 34.7233 42.4986 34.7233L42.5021 34.7197ZM49.9556 20.1468C49.8604 19.1167 49.6029 18.1642 49.1831 17.2893C48.7598 16.4144 48.2237 15.6736 47.5676 15.0633C46.9115 14.453 46.146 13.9768 45.2712 13.6346C44.3964 13.2924 43.4722 13.1195 42.5057 13.1195C41.5392 13.1195 40.622 13.2924 39.7648 13.6346C38.9077 13.9768 38.1493 14.453 37.4896 15.0633C36.8335 15.6736 36.3044 16.4144 35.8988 17.2893C35.4896 18.1642 35.2427 19.1167 35.1474 20.1468H49.9556Z" fill="#F2F8F7"/>
<path d="M70.3869 34.7197C68.4821 34.7197 66.7466 34.3846 65.1839 33.7143C63.6213 33.0441 62.2879 32.1304 61.1767 30.9733C60.0691 29.8197 59.2084 28.4757 58.5982 26.9447C57.9879 25.4136 57.6846 23.7874 57.6846 22.0694C57.6846 20.3514 57.9879 18.718 58.5982 17.1729C59.2084 15.6242 60.0656 14.2661 61.1767 13.0949C62.2844 11.9201 63.6213 11.0029 65.1839 10.3291C66.7466 9.65886 68.4962 9.32373 70.4328 9.32373C72.3693 9.32373 74.0625 9.66945 75.6111 10.3538C77.1561 11.0417 78.4789 11.9554 79.5689 13.0949C80.6624 14.2343 81.4984 15.5607 82.0769 17.0776C82.6518 18.5946 82.9411 20.1785 82.9411 21.8365C82.9411 22.2105 82.927 22.5632 82.8952 22.8913C82.8635 23.2194 82.8317 23.491 82.8 23.7097H63.1662C63.2615 24.8033 63.519 25.7876 63.9387 26.6624C64.362 27.5373 64.9088 28.2958 65.579 28.9378C66.2492 29.5799 67.0147 30.0702 67.8754 30.4159C68.7361 30.7581 69.632 30.931 70.5703 30.931C71.2582 30.931 71.9355 30.8428 72.6092 30.6734C73.2794 30.5006 73.9002 30.2501 74.4611 29.922C75.022 29.594 75.5229 29.1953 75.9603 28.7297C76.3977 28.2605 76.7398 27.7454 76.9903 27.181L81.3961 28.4475C80.553 30.2889 79.1526 31.7953 77.2019 32.9665C75.2477 34.1412 72.9761 34.7233 70.3834 34.7233L70.3869 34.7197ZM77.8369 20.1468C77.7416 19.1167 77.4841 18.1642 77.0644 17.2893C76.6411 16.4144 76.1049 15.6736 75.4488 15.0633C74.7927 14.453 74.0272 13.9768 73.1524 13.6346C72.2776 13.2924 71.3534 13.1195 70.3869 13.1195C69.4204 13.1195 68.5033 13.2924 67.6461 13.6346C66.7854 13.9768 66.0305 14.453 65.3709 15.0633C64.7148 15.6736 64.1857 16.4144 63.78 17.2893C63.3708 18.1642 63.1239 19.1167 63.0287 20.1468H77.8369Z" fill="#F2F8F7"/>
<path d="M87.2096 0.0424805H90.8746C91.6965 0.0424805 92.3667 0.709218 92.3667 1.5347V27.1776C92.3667 28.0843 92.6031 28.7933 93.0687 29.3084C93.5378 29.8234 94.1939 30.0809 95.037 30.0809C95.3792 30.0809 95.7778 30.0175 96.2293 29.894C96.2293 29.894 96.5256 29.8199 97.5203 29.4707C97.7708 30.8147 98.0212 32.1588 98.2681 33.5028C97.5203 33.845 96.6279 34.1202 95.5979 34.3213C94.5678 34.5223 93.6437 34.6246 92.8323 34.6246C91.051 34.6246 89.6682 34.1413 88.6841 33.1712C87.6999 32.2046 87.2061 30.8253 87.2061 29.0473V0.0424805H87.2096Z" fill="#F2F8F7"/>
<path d="M108.724 5.33028C107.63 4.51185 106.734 3.2842 106.134 1.79198L105.432 0.0422363L104.734 1.79198C104.138 3.28773 103.242 4.51538 102.152 5.33733L100.875 6.29334L102.152 7.24935C103.245 8.06778 104.141 9.29543 104.741 10.7876L105.443 12.5374L106.141 10.7876C106.738 9.2919 107.634 8.06425 108.724 7.2423L110.001 6.28629L108.724 5.33028Z" fill="#F2F8F7"/>
<path d="M98.8955 28.3416L102.86 14.3401H108.014L99.7985 32.3385L98.8955 28.3416Z" fill="#F2F8F7"/>
<path d="M84.3618 4.77314H92.3621V1.54176C92.3621 0.712746 91.6919 0.0424805 90.8629 0.0424805H81.9385L84.3618 4.77314Z" fill="#F2F8F7"/>
<path d="M29.0447 27.1739L20.4307 29.7986L20.4518 32.977C20.4518 33.806 21.122 34.4763 21.951 34.4763H26.2404L29.0447 27.1704V27.1739Z" fill="#F2F8F7"/>
<path d="M84.362 4.77299L81.9492 0L90.8913 0.0423325C91.7061 0.0670265 92.3764 0.719653 92.3622 1.57689V3.27372" fill="#F2F8F7"/>
</svg>
