<svg width="409" height="387" viewBox="0 0 409 387" fill="none" xmlns="http://www.w3.org/2000/svg">
<rect y="0.600098" width="409" height="386" fill="#132B24"/>
<rect x="68.5" y="91.1001" width="86" height="37" rx="18.5" fill="#9ADED6"/>
<rect x="68.5" y="91.1001" width="86" height="37" rx="18.5" stroke="#132B24"/>
<path d="M83.8781 104.624C84.7634 104.741 85.4621 105.072 85.9741 105.616C86.4861 106.149 86.7421 106.885 86.7421 107.824C86.7421 108.293 86.6674 108.715 86.5181 109.088C86.3687 109.461 86.1661 109.781 85.9101 110.048C85.6541 110.315 85.3501 110.533 84.9981 110.704C84.6567 110.864 84.2834 110.971 83.8781 111.024C83.6327 111.056 83.3981 111.077 83.1741 111.088C82.9607 111.088 82.7154 111.088 82.4381 111.088H80.3901V115.6H79.0141V104.56H82.4381C82.7154 104.56 82.9607 104.565 83.1741 104.576C83.3981 104.576 83.6327 104.592 83.8781 104.624ZM83.7981 109.856C84.1927 109.771 84.5341 109.573 84.8221 109.264C85.1207 108.944 85.2701 108.464 85.2701 107.824C85.2701 107.184 85.1207 106.709 84.8221 106.4C84.5341 106.08 84.1927 105.877 83.7981 105.792C83.6487 105.76 83.4674 105.739 83.2541 105.728C83.0407 105.717 82.8114 105.712 82.5661 105.712H80.3901V109.936H82.5661C82.8114 109.936 83.0407 109.931 83.2541 109.92C83.4674 109.909 83.6487 109.888 83.7981 109.856ZM92.8806 114.384L92.4166 115.296C92.1286 115.499 91.8032 115.637 91.4406 115.712C91.0779 115.787 90.6939 115.824 90.2886 115.824C89.9046 115.824 89.5472 115.771 89.2166 115.664C88.8859 115.557 88.5926 115.403 88.3366 115.2C88.0912 114.997 87.8992 114.747 87.7606 114.448C87.6219 114.149 87.5526 113.803 87.5526 113.408C87.5526 112.448 87.9312 111.723 88.6886 111.232C89.4459 110.741 90.6566 110.496 92.3206 110.496H92.8646V110.272C92.8646 110.091 92.8646 109.915 92.8646 109.744C92.8646 109.573 92.8539 109.408 92.8326 109.248C92.8006 108.853 92.6619 108.539 92.4166 108.304C92.1712 108.069 91.7606 107.952 91.1846 107.952C90.6086 107.952 90.1712 108.107 89.8726 108.416C89.5846 108.715 89.4139 109.157 89.3606 109.744H87.9206C87.9846 108.837 88.3099 108.139 88.8966 107.648C89.4832 107.147 90.2459 106.896 91.1846 106.896C92.1979 106.896 92.9339 107.099 93.3926 107.504C93.8512 107.899 94.1179 108.443 94.1926 109.136C94.2139 109.307 94.2246 109.493 94.2246 109.696C94.2352 109.888 94.2406 110.075 94.2406 110.256V113.44C94.2406 113.76 94.2512 114.08 94.2726 114.4C94.2939 114.72 94.3366 115.12 94.4006 115.6H93.0246L92.8806 114.384ZM90.7526 114.768C91.3926 114.768 91.9046 114.565 92.2886 114.16C92.6726 113.744 92.8646 113.152 92.8646 112.384V111.52C91.7019 111.435 90.7739 111.531 90.0806 111.808C89.3979 112.075 89.0566 112.571 89.0566 113.296C89.0566 113.808 89.2059 114.181 89.5046 114.416C89.8139 114.651 90.2299 114.768 90.7526 114.768ZM98.3086 113.12C98.3086 113.269 98.3086 113.387 98.3086 113.472C98.3086 113.557 98.3139 113.659 98.3246 113.776C98.3566 114.181 98.4739 114.443 98.6766 114.56C98.8792 114.677 99.2526 114.704 99.7966 114.64V115.648C99.5939 115.68 99.3966 115.701 99.2046 115.712C99.0126 115.723 98.8206 115.728 98.6286 115.728C98.0952 115.728 97.6899 115.616 97.4126 115.392C97.1459 115.157 96.9912 114.773 96.9486 114.24C96.9379 114.123 96.9326 113.979 96.9326 113.808C96.9326 113.637 96.9326 113.429 96.9326 113.184V108.24H95.7966V107.184H96.9326V105.216H98.3086V107.184H99.8926V108.24H98.3086V113.12ZM108.433 111.12C108.433 111.184 108.433 111.275 108.433 111.392C108.433 111.499 108.422 111.627 108.401 111.776H102.257C102.289 112.331 102.374 112.8 102.513 113.184C102.652 113.568 102.828 113.877 103.041 114.112C103.265 114.347 103.516 114.517 103.793 114.624C104.081 114.72 104.38 114.768 104.689 114.768C105.244 114.768 105.724 114.603 106.129 114.272C106.534 113.941 106.785 113.472 106.881 112.864H108.321C108.236 113.376 108.076 113.819 107.841 114.192C107.617 114.565 107.334 114.875 106.993 115.12C106.662 115.355 106.294 115.531 105.889 115.648C105.484 115.765 105.062 115.824 104.625 115.824C104.07 115.824 103.558 115.733 103.089 115.552C102.62 115.371 102.214 115.099 101.873 114.736C101.532 114.363 101.26 113.899 101.057 113.344C100.865 112.789 100.769 112.139 100.769 111.392C100.769 110.699 100.87 110.08 101.073 109.536C101.276 108.981 101.553 108.507 101.905 108.112C102.268 107.717 102.694 107.419 103.185 107.216C103.686 107.003 104.225 106.896 104.801 106.896C105.388 106.896 105.905 107.003 106.353 107.216C106.801 107.419 107.18 107.707 107.489 108.08C107.798 108.453 108.033 108.901 108.193 109.424C108.353 109.936 108.433 110.501 108.433 111.12ZM104.769 107.952C104.097 107.952 103.532 108.187 103.073 108.656C102.625 109.125 102.358 109.813 102.273 110.72H107.041C106.977 109.835 106.758 109.152 106.385 108.672C106.012 108.192 105.473 107.952 104.769 107.952ZM117.39 109.376C117.412 109.589 117.422 109.803 117.422 110.016C117.422 110.219 117.422 110.491 117.422 110.832V115.6H116.046V110.928C116.046 110.715 116.046 110.512 116.046 110.32C116.046 110.128 116.036 109.925 116.014 109.712C115.972 109.211 115.801 108.8 115.502 108.48C115.214 108.149 114.74 107.984 114.078 107.984C113.748 107.984 113.433 108.053 113.134 108.192C112.836 108.32 112.574 108.539 112.35 108.848C112.126 109.147 111.95 109.547 111.822 110.048C111.694 110.539 111.63 111.147 111.63 111.872V115.6H110.254V107.12H111.63V108.576L112.158 107.6C112.521 107.323 112.868 107.136 113.198 107.04C113.54 106.944 113.929 106.896 114.366 106.896C115.305 106.896 116.025 107.125 116.526 107.584C117.038 108.032 117.326 108.629 117.39 109.376ZM121.387 113.12C121.387 113.269 121.387 113.387 121.387 113.472C121.387 113.557 121.392 113.659 121.403 113.776C121.435 114.181 121.552 114.443 121.755 114.56C121.957 114.677 122.331 114.704 122.875 114.64V115.648C122.672 115.68 122.475 115.701 122.283 115.712C122.091 115.723 121.899 115.728 121.707 115.728C121.173 115.728 120.768 115.616 120.491 115.392C120.224 115.157 120.069 114.773 120.027 114.24C120.016 114.123 120.011 113.979 120.011 113.808C120.011 113.637 120.011 113.429 120.011 113.184V108.24H118.875V107.184H120.011V105.216H121.387V107.184H122.971V108.24H121.387V113.12ZM134.399 112.816V115.6H133.023V112.816H127.551V112.128L133.023 104.56H134.399V111.696H135.791V112.816H134.399ZM133.023 106.4C132.895 106.613 132.757 106.837 132.607 107.072C132.458 107.307 132.293 107.552 132.111 107.808L129.295 111.696H133.023V106.4ZM142.769 109.76C143.067 109.856 143.345 109.995 143.601 110.176C143.857 110.347 144.081 110.549 144.273 110.784C144.465 111.019 144.614 111.285 144.721 111.584C144.827 111.872 144.881 112.181 144.881 112.512C144.881 113.12 144.763 113.637 144.529 114.064C144.305 114.48 144.006 114.821 143.633 115.088C143.27 115.344 142.849 115.531 142.369 115.648C141.899 115.776 141.425 115.84 140.945 115.84C140.422 115.84 139.921 115.776 139.441 115.648C138.971 115.531 138.555 115.344 138.193 115.088C137.83 114.821 137.542 114.48 137.329 114.064C137.115 113.637 137.009 113.12 137.009 112.512C137.009 112.181 137.067 111.872 137.185 111.584C137.302 111.285 137.462 111.019 137.665 110.784C137.867 110.549 138.097 110.347 138.353 110.176C138.619 110.005 138.902 109.872 139.201 109.776C138.699 109.584 138.289 109.28 137.969 108.864C137.649 108.437 137.489 107.92 137.489 107.312C137.489 106.853 137.569 106.443 137.729 106.08C137.899 105.707 138.139 105.392 138.449 105.136C138.758 104.88 139.131 104.683 139.569 104.544C140.006 104.405 140.497 104.336 141.041 104.336C141.585 104.336 142.075 104.405 142.513 104.544C142.95 104.683 143.323 104.88 143.633 105.136C143.942 105.392 144.177 105.707 144.337 106.08C144.507 106.443 144.593 106.853 144.593 107.312C144.593 107.92 144.417 108.437 144.065 108.864C143.713 109.28 143.281 109.579 142.769 109.76ZM141.041 105.424C140.347 105.424 139.83 105.616 139.489 106C139.147 106.373 138.977 106.827 138.977 107.36C138.977 107.925 139.142 108.395 139.473 108.768C139.814 109.141 140.331 109.328 141.025 109.328C141.718 109.328 142.235 109.141 142.577 108.768C142.929 108.395 143.105 107.925 143.105 107.36C143.105 106.827 142.934 106.373 142.593 106C142.251 105.616 141.734 105.424 141.041 105.424ZM140.977 114.752C141.787 114.752 142.385 114.549 142.769 114.144C143.153 113.739 143.345 113.216 143.345 112.576C143.345 112.288 143.302 112.016 143.217 111.76C143.131 111.504 142.993 111.275 142.801 111.072C142.609 110.869 142.358 110.709 142.049 110.592C141.75 110.475 141.387 110.416 140.961 110.416C140.534 110.416 140.166 110.475 139.857 110.592C139.558 110.709 139.307 110.869 139.105 111.072C138.913 111.275 138.769 111.504 138.673 111.76C138.587 112.016 138.545 112.288 138.545 112.576C138.545 113.216 138.747 113.739 139.153 114.144C139.558 114.549 140.166 114.752 140.977 114.752Z" fill="#132B24"/>
<rect x="55.5" y="175.1" width="112" height="37" rx="18.5" fill="#64ABA3"/>
<rect x="55.5" y="175.1" width="112" height="37" rx="18.5" stroke="#132B24"/>
<path d="M73.0612 199.6H65.7172V188.56H72.9012V189.68H67.0932V193.52H72.4212V194.64H67.0932V198.48H73.0612V199.6ZM81.8278 193.376C81.8491 193.589 81.8598 193.803 81.8598 194.016C81.8598 194.219 81.8598 194.491 81.8598 194.832V199.6H80.4838V194.928C80.4838 194.715 80.4838 194.512 80.4838 194.32C80.4838 194.128 80.4731 193.925 80.4518 193.712C80.4091 193.211 80.2385 192.8 79.9398 192.48C79.6518 192.149 79.1771 191.984 78.5158 191.984C78.1851 191.984 77.8705 192.053 77.5718 192.192C77.2731 192.32 77.0118 192.539 76.7878 192.848C76.5638 193.147 76.3878 193.547 76.2598 194.048C76.1318 194.539 76.0678 195.147 76.0678 195.872V199.6H74.6918V191.12H76.0678V192.576L76.5958 191.6C76.9585 191.323 77.3051 191.136 77.6358 191.04C77.9771 190.944 78.3665 190.896 78.8038 190.896C79.7425 190.896 80.4625 191.125 80.9638 191.584C81.4758 192.032 81.7638 192.629 81.8278 193.376ZM85.8242 197.12C85.8242 197.269 85.8242 197.387 85.8242 197.472C85.8242 197.557 85.8295 197.659 85.8402 197.776C85.8722 198.181 85.9895 198.443 86.1922 198.56C86.3949 198.677 86.7682 198.704 87.3122 198.64V199.648C87.1095 199.68 86.9122 199.701 86.7202 199.712C86.5282 199.723 86.3362 199.728 86.1442 199.728C85.6109 199.728 85.2055 199.616 84.9282 199.392C84.6615 199.157 84.5069 198.773 84.4642 198.24C84.4535 198.123 84.4482 197.979 84.4482 197.808C84.4482 197.637 84.4482 197.429 84.4482 197.184V192.24H83.3122V191.184H84.4482V189.216H85.8242V191.184H87.4082V192.24H85.8242V197.12ZM95.9487 195.12C95.9487 195.184 95.9487 195.275 95.9487 195.392C95.9487 195.499 95.938 195.627 95.9167 195.776H89.7727C89.8047 196.331 89.89 196.8 90.0287 197.184C90.1674 197.568 90.3434 197.877 90.5567 198.112C90.7807 198.347 91.0314 198.517 91.3087 198.624C91.5967 198.72 91.8954 198.768 92.2047 198.768C92.7594 198.768 93.2394 198.603 93.6447 198.272C94.05 197.941 94.3007 197.472 94.3967 196.864H95.8367C95.7514 197.376 95.5914 197.819 95.3567 198.192C95.1327 198.565 94.85 198.875 94.5087 199.12C94.178 199.355 93.81 199.531 93.4047 199.648C92.9994 199.765 92.578 199.824 92.1407 199.824C91.586 199.824 91.074 199.733 90.6047 199.552C90.1354 199.371 89.73 199.099 89.3887 198.736C89.0474 198.363 88.7754 197.899 88.5727 197.344C88.3807 196.789 88.2847 196.139 88.2847 195.392C88.2847 194.699 88.386 194.08 88.5887 193.536C88.7914 192.981 89.0687 192.507 89.4207 192.112C89.7834 191.717 90.21 191.419 90.7007 191.216C91.202 191.003 91.7407 190.896 92.3167 190.896C92.9034 190.896 93.4207 191.003 93.8687 191.216C94.3167 191.419 94.6954 191.707 95.0047 192.08C95.314 192.453 95.5487 192.901 95.7087 193.424C95.8687 193.936 95.9487 194.501 95.9487 195.12ZM92.2847 191.952C91.6127 191.952 91.0474 192.187 90.5887 192.656C90.1407 193.125 89.874 193.813 89.7887 194.72H94.5567C94.4927 193.835 94.274 193.152 93.9007 192.672C93.5274 192.192 92.9887 191.952 92.2847 191.952ZM101.098 190.928C101.333 190.928 101.525 190.965 101.674 191.04V192.08C101.311 192.059 100.975 192.096 100.666 192.192C100.357 192.288 100.09 192.448 99.8659 192.672C99.6419 192.885 99.4659 193.168 99.3379 193.52C99.2099 193.872 99.1459 194.288 99.1459 194.768V199.6H97.7699V191.12H99.1459V192.448L99.9139 191.312C100.287 191.056 100.682 190.928 101.098 190.928ZM107.307 190.896C107.926 190.896 108.475 191.008 108.955 191.232C109.435 191.445 109.835 191.749 110.155 192.144C110.486 192.528 110.737 192.987 110.907 193.52C111.078 194.043 111.163 194.613 111.163 195.232C111.163 196.011 111.051 196.693 110.827 197.28C110.603 197.856 110.299 198.331 109.915 198.704C109.531 199.077 109.089 199.36 108.587 199.552C108.086 199.733 107.563 199.824 107.019 199.824C106.667 199.824 106.294 199.776 105.899 199.68C105.505 199.584 105.201 199.445 104.987 199.264L104.427 198.432V202.736H103.051V191.12H104.427V192.48L105.067 191.568C105.313 191.365 105.638 191.205 106.043 191.088C106.449 190.96 106.87 190.896 107.307 190.896ZM107.019 198.768C107.393 198.768 107.739 198.699 108.059 198.56C108.379 198.411 108.657 198.197 108.891 197.92C109.137 197.632 109.323 197.28 109.451 196.864C109.59 196.437 109.659 195.947 109.659 195.392C109.659 194.912 109.606 194.464 109.499 194.048C109.393 193.632 109.233 193.269 109.019 192.96C108.806 192.64 108.539 192.395 108.219 192.224C107.899 192.043 107.526 191.952 107.099 191.952C106.747 191.952 106.411 192.011 106.091 192.128C105.771 192.245 105.483 192.437 105.227 192.704C104.982 192.971 104.785 193.317 104.635 193.744C104.497 194.16 104.427 194.672 104.427 195.28V195.744C104.427 196.288 104.502 196.752 104.651 197.136C104.811 197.52 105.014 197.835 105.259 198.08C105.515 198.315 105.798 198.491 106.107 198.608C106.417 198.715 106.721 198.768 107.019 198.768ZM116.16 190.928C116.395 190.928 116.587 190.965 116.736 191.04V192.08C116.374 192.059 116.038 192.096 115.728 192.192C115.419 192.288 115.152 192.448 114.928 192.672C114.704 192.885 114.528 193.168 114.4 193.52C114.272 193.872 114.208 194.288 114.208 194.768V199.6H112.832V191.12H114.208V192.448L114.976 191.312C115.35 191.056 115.744 190.928 116.16 190.928ZM118.802 188.336C119.047 188.336 119.255 188.421 119.426 188.592C119.596 188.763 119.682 188.971 119.682 189.216C119.682 189.461 119.596 189.669 119.426 189.84C119.255 190.011 119.047 190.096 118.802 190.096C118.556 190.096 118.348 190.011 118.178 189.84C118.007 189.669 117.922 189.461 117.922 189.216C117.922 188.971 118.007 188.763 118.178 188.592C118.348 188.421 118.556 188.336 118.802 188.336ZM118.114 199.6V191.12H119.49V199.6H118.114ZM124.39 190.896C125.35 190.896 126.086 191.141 126.598 191.632C127.121 192.123 127.425 192.757 127.51 193.536H126.07C125.974 193.035 125.777 192.645 125.478 192.368C125.18 192.091 124.78 191.952 124.278 191.952C123.798 191.952 123.441 192.069 123.206 192.304C122.982 192.539 122.87 192.843 122.87 193.216C122.87 193.643 123.036 193.963 123.366 194.176C123.697 194.379 124.15 194.555 124.726 194.704C125.708 194.96 126.433 195.296 126.902 195.712C127.372 196.128 127.606 196.699 127.606 197.424C127.606 197.819 127.526 198.171 127.366 198.48C127.206 198.779 126.982 199.029 126.694 199.232C126.417 199.424 126.086 199.568 125.702 199.664C125.318 199.771 124.902 199.824 124.454 199.824C124.017 199.824 123.606 199.771 123.222 199.664C122.849 199.568 122.518 199.408 122.23 199.184C121.942 198.96 121.702 198.677 121.51 198.336C121.318 197.995 121.19 197.584 121.126 197.104H122.566C122.684 197.723 122.918 198.155 123.27 198.4C123.633 198.645 124.06 198.768 124.55 198.768C125.009 198.768 125.398 198.667 125.718 198.464C126.038 198.251 126.198 197.941 126.198 197.536C126.198 197.131 126.044 196.805 125.734 196.56C125.425 196.315 124.913 196.096 124.198 195.904C123.814 195.797 123.457 195.68 123.126 195.552C122.796 195.413 122.508 195.248 122.262 195.056C122.017 194.853 121.82 194.619 121.67 194.352C121.532 194.075 121.462 193.749 121.462 193.376C121.462 192.597 121.729 191.989 122.262 191.552C122.806 191.115 123.516 190.896 124.39 190.896ZM136.23 195.12C136.23 195.184 136.23 195.275 136.23 195.392C136.23 195.499 136.219 195.627 136.198 195.776H130.054C130.086 196.331 130.171 196.8 130.31 197.184C130.449 197.568 130.625 197.877 130.838 198.112C131.062 198.347 131.313 198.517 131.59 198.624C131.878 198.72 132.177 198.768 132.486 198.768C133.041 198.768 133.521 198.603 133.926 198.272C134.331 197.941 134.582 197.472 134.678 196.864H136.118C136.033 197.376 135.873 197.819 135.638 198.192C135.414 198.565 135.131 198.875 134.79 199.12C134.459 199.355 134.091 199.531 133.686 199.648C133.281 199.765 132.859 199.824 132.422 199.824C131.867 199.824 131.355 199.733 130.886 199.552C130.417 199.371 130.011 199.099 129.67 198.736C129.329 198.363 129.057 197.899 128.854 197.344C128.662 196.789 128.566 196.139 128.566 195.392C128.566 194.699 128.667 194.08 128.87 193.536C129.073 192.981 129.35 192.507 129.702 192.112C130.065 191.717 130.491 191.419 130.982 191.216C131.483 191.003 132.022 190.896 132.598 190.896C133.185 190.896 133.702 191.003 134.15 191.216C134.598 191.419 134.977 191.707 135.286 192.08C135.595 192.453 135.83 192.901 135.99 193.424C136.15 193.936 136.23 194.501 136.23 195.12ZM132.566 191.952C131.894 191.952 131.329 192.187 130.87 192.656C130.422 193.125 130.155 193.813 130.07 194.72H134.838C134.774 193.835 134.555 193.152 134.182 192.672C133.809 192.192 133.27 191.952 132.566 191.952ZM145.152 192.144C145.728 192.144 146.24 192.24 146.688 192.432C147.147 192.613 147.531 192.869 147.84 193.2C148.16 193.531 148.4 193.925 148.56 194.384C148.731 194.843 148.816 195.344 148.816 195.888C148.816 196.475 148.715 197.013 148.512 197.504C148.32 197.984 148.048 198.395 147.696 198.736C147.355 199.077 146.944 199.344 146.464 199.536C145.995 199.728 145.478 199.824 144.912 199.824C143.686 199.824 142.726 199.413 142.032 198.592C141.35 197.771 141.008 196.443 141.008 194.608C141.008 193.499 141.126 192.549 141.36 191.76C141.595 190.96 141.904 190.309 142.288 189.808C142.683 189.296 143.136 188.923 143.648 188.688C144.171 188.453 144.715 188.336 145.28 188.336C145.75 188.336 146.182 188.405 146.576 188.544C146.982 188.683 147.328 188.885 147.616 189.152C147.915 189.408 148.155 189.723 148.336 190.096C148.528 190.459 148.646 190.864 148.688 191.312L148.704 191.472H147.232L147.2 191.312C146.944 190.053 146.267 189.424 145.168 189.424C144.795 189.424 144.454 189.504 144.144 189.664C143.835 189.824 143.563 190.08 143.328 190.432C143.094 190.784 142.907 191.243 142.768 191.808C142.63 192.363 142.544 193.04 142.512 193.84L143.136 192.848C143.435 192.603 143.744 192.427 144.064 192.32C144.384 192.203 144.747 192.144 145.152 192.144ZM144.912 198.736C145.254 198.736 145.568 198.672 145.856 198.544C146.155 198.416 146.406 198.235 146.608 198C146.822 197.755 146.987 197.467 147.104 197.136C147.222 196.805 147.28 196.443 147.28 196.048C147.28 195.664 147.232 195.301 147.136 194.96C147.051 194.619 146.912 194.32 146.72 194.064C146.528 193.808 146.283 193.605 145.984 193.456C145.686 193.307 145.328 193.232 144.912 193.232C144.603 193.232 144.304 193.291 144.016 193.408C143.739 193.525 143.494 193.701 143.28 193.936C143.078 194.171 142.912 194.464 142.784 194.816C142.667 195.157 142.608 195.557 142.608 196.016C142.608 196.4 142.662 196.757 142.768 197.088C142.886 197.419 143.04 197.707 143.232 197.952C143.435 198.197 143.675 198.389 143.952 198.528C144.24 198.667 144.56 198.736 144.912 198.736ZM154.242 188.336C154.999 188.336 155.634 188.485 156.146 188.784C156.658 189.083 157.068 189.493 157.378 190.016C157.687 190.528 157.906 191.136 158.034 191.84C158.162 192.533 158.226 193.28 158.226 194.08C158.226 194.88 158.162 195.632 158.034 196.336C157.906 197.029 157.687 197.637 157.378 198.16C157.068 198.672 156.658 199.077 156.146 199.376C155.634 199.675 154.999 199.824 154.242 199.824C153.484 199.824 152.85 199.675 152.338 199.376C151.826 199.077 151.415 198.672 151.106 198.16C150.796 197.637 150.578 197.029 150.45 196.336C150.322 195.632 150.258 194.88 150.258 194.08C150.258 193.28 150.322 192.533 150.45 191.84C150.578 191.136 150.796 190.528 151.106 190.016C151.415 189.493 151.826 189.083 152.338 188.784C152.85 188.485 153.484 188.336 154.242 188.336ZM154.242 198.736C154.679 198.736 155.052 198.629 155.362 198.416C155.671 198.203 155.922 197.893 156.114 197.488C156.316 197.083 156.46 196.592 156.546 196.016C156.642 195.44 156.69 194.795 156.69 194.08C156.69 193.355 156.642 192.704 156.546 192.128C156.46 191.552 156.316 191.067 156.114 190.672C155.922 190.267 155.671 189.957 155.362 189.744C155.052 189.531 154.679 189.424 154.242 189.424C153.804 189.424 153.431 189.531 153.122 189.744C152.812 189.957 152.556 190.267 152.354 190.672C152.162 191.067 152.018 191.552 151.922 192.128C151.836 192.704 151.794 193.355 151.794 194.08C151.794 194.795 151.836 195.44 151.922 196.016C152.018 196.592 152.162 197.083 152.354 197.488C152.556 197.893 152.812 198.203 153.122 198.416C153.431 198.629 153.804 198.736 154.242 198.736Z" fill="#F2F8F7"/>
<rect x="68.5" y="259.1" width="86" height="37" rx="18.5" fill="#3D766F"/>
<rect x="68.5" y="259.1" width="86" height="37" rx="18.5" stroke="#132B24"/>
<path d="M80.0229 277.52H85.1909V278.64H80.0229V283.6H78.6469V272.56H85.8309V273.68H80.0229V277.52ZM90.813 274.896C91.5383 274.896 92.1623 275.019 92.685 275.264C93.2183 275.499 93.6557 275.819 93.997 276.224C94.3383 276.629 94.5943 277.104 94.765 277.648C94.9357 278.192 95.021 278.763 95.021 279.36C95.021 279.957 94.9357 280.528 94.765 281.072C94.5943 281.605 94.3383 282.08 93.997 282.496C93.6557 282.901 93.2183 283.227 92.685 283.472C92.1623 283.707 91.5383 283.824 90.813 283.824C90.0983 283.824 89.4743 283.707 88.941 283.472C88.4077 283.227 87.9703 282.901 87.629 282.496C87.2877 282.08 87.0317 281.605 86.861 281.072C86.6903 280.528 86.605 279.957 86.605 279.36C86.605 278.763 86.6903 278.192 86.861 277.648C87.0317 277.104 87.2877 276.629 87.629 276.224C87.9703 275.819 88.4077 275.499 88.941 275.264C89.4743 275.019 90.0983 274.896 90.813 274.896ZM90.813 282.768C91.2397 282.768 91.6183 282.683 91.949 282.512C92.2903 282.341 92.573 282.107 92.797 281.808C93.0317 281.509 93.2077 281.152 93.325 280.736C93.453 280.309 93.517 279.851 93.517 279.36C93.517 278.859 93.453 278.4 93.325 277.984C93.2077 277.568 93.0317 277.211 92.797 276.912C92.573 276.603 92.2903 276.368 91.949 276.208C91.6183 276.037 91.2397 275.952 90.813 275.952C90.3863 275.952 90.0023 276.037 89.661 276.208C89.3303 276.368 89.0477 276.603 88.813 276.912C88.589 277.211 88.413 277.568 88.285 277.984C88.1677 278.4 88.109 278.859 88.109 279.36C88.109 279.851 88.1677 280.309 88.285 280.736C88.413 281.152 88.589 281.509 88.813 281.808C89.0477 282.107 89.3303 282.341 89.661 282.512C90.0023 282.683 90.3863 282.768 90.813 282.768ZM100.012 274.928C100.247 274.928 100.439 274.965 100.588 275.04V276.08C100.225 276.059 99.8893 276.096 99.58 276.192C99.2707 276.288 99.004 276.448 98.78 276.672C98.556 276.885 98.38 277.168 98.252 277.52C98.124 277.872 98.06 278.288 98.06 278.768V283.6H96.684V275.12H98.06V276.448L98.828 275.312C99.2013 275.056 99.596 274.928 100.012 274.928ZM109.005 283.6H107.629V282.16L107.101 283.152C106.739 283.419 106.387 283.595 106.045 283.68C105.715 283.776 105.331 283.824 104.893 283.824C104.456 283.824 104.061 283.765 103.709 283.648C103.368 283.531 103.069 283.376 102.813 283.184C102.568 282.981 102.371 282.752 102.221 282.496C102.072 282.229 101.971 281.952 101.917 281.664C101.885 281.451 101.864 281.243 101.853 281.04C101.843 280.827 101.837 280.549 101.837 280.208V275.12H103.213V279.952C103.213 280.091 103.219 280.267 103.229 280.48C103.24 280.693 103.256 280.907 103.277 281.12C103.341 281.6 103.539 281.989 103.869 282.288C104.211 282.587 104.669 282.736 105.245 282.736C105.576 282.736 105.885 282.672 106.173 282.544C106.461 282.405 106.712 282.187 106.925 281.888C107.149 281.579 107.32 281.179 107.437 280.688C107.565 280.187 107.629 279.573 107.629 278.848V275.12H109.005V283.6ZM122.714 276.96C122.746 277.173 122.767 277.387 122.778 277.6C122.789 277.803 122.794 278.075 122.794 278.416V283.6H121.418V279.056C121.418 278.683 121.413 278.368 121.402 278.112C121.391 277.856 121.375 277.621 121.354 277.408C121.29 276.928 121.109 276.571 120.81 276.336C120.522 276.101 120.138 275.984 119.658 275.984C119.391 275.984 119.141 276.043 118.906 276.16C118.682 276.277 118.485 276.469 118.314 276.736C118.154 277.003 118.026 277.355 117.93 277.792C117.845 278.229 117.802 278.768 117.802 279.408V283.6H116.426V279.056C116.426 278.683 116.421 278.368 116.41 278.112C116.399 277.856 116.383 277.621 116.362 277.408C116.298 276.928 116.117 276.571 115.818 276.336C115.53 276.101 115.146 275.984 114.666 275.984C114.399 275.984 114.149 276.043 113.914 276.16C113.69 276.277 113.493 276.469 113.322 276.736C113.162 277.003 113.034 277.355 112.938 277.792C112.853 278.229 112.81 278.768 112.81 279.408V283.6H111.434V275.12H112.81V276.352L113.354 275.392C113.567 275.211 113.823 275.083 114.122 275.008C114.431 274.933 114.773 274.896 115.146 274.896C115.797 274.896 116.325 275.045 116.73 275.344C117.146 275.632 117.434 276.011 117.594 276.48L118.346 275.392C118.559 275.211 118.815 275.083 119.114 275.008C119.423 274.933 119.765 274.896 120.138 274.896C120.906 274.896 121.503 275.093 121.93 275.488C122.357 275.883 122.618 276.373 122.714 276.96ZM133.855 277.76C134.153 277.856 134.431 277.995 134.687 278.176C134.943 278.347 135.167 278.549 135.359 278.784C135.551 279.019 135.7 279.285 135.807 279.584C135.913 279.872 135.967 280.181 135.967 280.512C135.967 281.12 135.849 281.637 135.615 282.064C135.391 282.48 135.092 282.821 134.719 283.088C134.356 283.344 133.935 283.531 133.455 283.648C132.985 283.776 132.511 283.84 132.031 283.84C131.508 283.84 131.007 283.776 130.527 283.648C130.057 283.531 129.641 283.344 129.279 283.088C128.916 282.821 128.628 282.48 128.415 282.064C128.201 281.637 128.095 281.12 128.095 280.512C128.095 280.181 128.153 279.872 128.271 279.584C128.388 279.285 128.548 279.019 128.751 278.784C128.953 278.549 129.183 278.347 129.439 278.176C129.705 278.005 129.988 277.872 130.287 277.776C129.785 277.584 129.375 277.28 129.055 276.864C128.735 276.437 128.575 275.92 128.575 275.312C128.575 274.853 128.655 274.443 128.815 274.08C128.985 273.707 129.225 273.392 129.535 273.136C129.844 272.88 130.217 272.683 130.655 272.544C131.092 272.405 131.583 272.336 132.127 272.336C132.671 272.336 133.161 272.405 133.599 272.544C134.036 272.683 134.409 272.88 134.719 273.136C135.028 273.392 135.263 273.707 135.423 274.08C135.593 274.443 135.679 274.853 135.679 275.312C135.679 275.92 135.503 276.437 135.151 276.864C134.799 277.28 134.367 277.579 133.855 277.76ZM132.127 273.424C131.433 273.424 130.916 273.616 130.575 274C130.233 274.373 130.063 274.827 130.063 275.36C130.063 275.925 130.228 276.395 130.559 276.768C130.9 277.141 131.417 277.328 132.111 277.328C132.804 277.328 133.321 277.141 133.663 276.768C134.015 276.395 134.191 275.925 134.191 275.36C134.191 274.827 134.02 274.373 133.679 274C133.337 273.616 132.82 273.424 132.127 273.424ZM132.063 282.752C132.873 282.752 133.471 282.549 133.855 282.144C134.239 281.739 134.431 281.216 134.431 280.576C134.431 280.288 134.388 280.016 134.303 279.76C134.217 279.504 134.079 279.275 133.887 279.072C133.695 278.869 133.444 278.709 133.135 278.592C132.836 278.475 132.473 278.416 132.047 278.416C131.62 278.416 131.252 278.475 130.943 278.592C130.644 278.709 130.393 278.869 130.191 279.072C129.999 279.275 129.855 279.504 129.759 279.76C129.673 280.016 129.631 280.288 129.631 280.576C129.631 281.216 129.833 281.739 130.239 282.144C130.644 282.549 131.252 282.752 132.063 282.752ZM144.048 280.816V283.6H142.672V280.816H137.2V280.128L142.672 272.56H144.048V279.696H145.44V280.816H144.048ZM142.672 274.4C142.544 274.613 142.405 274.837 142.256 275.072C142.107 275.307 141.941 275.552 141.76 275.808L138.944 279.696H142.672V274.4Z" fill="#F2F8F7"/>
<rect x="186.5" y="132.1" width="167" height="124" rx="16.5" fill="white" stroke="#132B24"/>
<rect x="198" y="174.9" width="6.4" height="6.4" rx="3.2" fill="#E1EAFF"/>
<path opacity="0.8" d="M216.503 182.6H215.539V179.218H211.283V182.6H210.32V174.872H211.283V178.411H215.539V174.872H216.503V182.6ZM221.514 181.749L221.189 182.387C220.988 182.529 220.76 182.626 220.506 182.678C220.252 182.731 219.984 182.757 219.7 182.757C219.431 182.757 219.181 182.72 218.949 182.645C218.718 182.57 218.513 182.462 218.333 182.32C218.162 182.178 218.027 182.003 217.93 181.794C217.833 181.585 217.785 181.342 217.785 181.066C217.785 180.394 218.05 179.886 218.58 179.542C219.11 179.199 219.957 179.027 221.122 179.027H221.503V178.87C221.503 178.744 221.503 178.62 221.503 178.501C221.503 178.381 221.496 178.266 221.481 178.154C221.458 177.877 221.361 177.657 221.189 177.493C221.018 177.329 220.73 177.246 220.327 177.246C219.924 177.246 219.618 177.355 219.409 177.571C219.207 177.78 219.088 178.09 219.05 178.501H218.042C218.087 177.866 218.315 177.377 218.725 177.034C219.136 176.683 219.67 176.507 220.327 176.507C221.036 176.507 221.552 176.649 221.873 176.933C222.194 177.209 222.38 177.59 222.433 178.075C222.448 178.195 222.455 178.325 222.455 178.467C222.463 178.602 222.466 178.732 222.466 178.859V181.088C222.466 181.312 222.474 181.536 222.489 181.76C222.504 181.984 222.533 182.264 222.578 182.6H221.615L221.514 181.749ZM220.025 182.018C220.473 182.018 220.831 181.876 221.1 181.592C221.369 181.301 221.503 180.886 221.503 180.349V179.744C220.689 179.684 220.04 179.752 219.554 179.946C219.076 180.132 218.837 180.48 218.837 180.987C218.837 181.346 218.942 181.607 219.151 181.771C219.368 181.936 219.659 182.018 220.025 182.018ZM226.49 176.53C226.654 176.53 226.789 176.556 226.893 176.608V177.336C226.639 177.321 226.404 177.347 226.187 177.414C225.971 177.482 225.784 177.594 225.627 177.75C225.471 177.9 225.347 178.098 225.258 178.344C225.168 178.59 225.123 178.882 225.123 179.218V182.6H224.16V176.664H225.123V177.594L225.661 176.798C225.922 176.619 226.199 176.53 226.49 176.53ZM230.467 182.6H229.291L227.04 176.664H228.104L229.918 181.894L231.699 176.664H232.718L230.467 182.6ZM236.914 181.749L236.589 182.387C236.388 182.529 236.16 182.626 235.906 182.678C235.652 182.731 235.384 182.757 235.1 182.757C234.831 182.757 234.581 182.72 234.349 182.645C234.118 182.57 233.913 182.462 233.733 182.32C233.562 182.178 233.427 182.003 233.33 181.794C233.233 181.585 233.185 181.342 233.185 181.066C233.185 180.394 233.45 179.886 233.98 179.542C234.51 179.199 235.357 179.027 236.522 179.027H236.903V178.87C236.903 178.744 236.903 178.62 236.903 178.501C236.903 178.381 236.896 178.266 236.881 178.154C236.858 177.877 236.761 177.657 236.589 177.493C236.418 177.329 236.13 177.246 235.727 177.246C235.324 177.246 235.018 177.355 234.809 177.571C234.607 177.78 234.488 178.09 234.45 178.501H233.442C233.487 177.866 233.715 177.377 234.125 177.034C234.536 176.683 235.07 176.507 235.727 176.507C236.436 176.507 236.952 176.649 237.273 176.933C237.594 177.209 237.78 177.59 237.833 178.075C237.848 178.195 237.855 178.325 237.855 178.467C237.863 178.602 237.866 178.732 237.866 178.859V181.088C237.866 181.312 237.874 181.536 237.889 181.76C237.904 181.984 237.933 182.264 237.978 182.6H237.015L236.914 181.749ZM235.425 182.018C235.873 182.018 236.231 181.876 236.5 181.592C236.769 181.301 236.903 180.886 236.903 180.349V179.744C236.089 179.684 235.44 179.752 234.954 179.946C234.476 180.132 234.237 180.48 234.237 180.987C234.237 181.346 234.342 181.607 234.551 181.771C234.768 181.936 235.059 182.018 235.425 182.018ZM241.89 176.53C242.054 176.53 242.189 176.556 242.293 176.608V177.336C242.039 177.321 241.804 177.347 241.587 177.414C241.371 177.482 241.184 177.594 241.027 177.75C240.871 177.9 240.747 178.098 240.658 178.344C240.568 178.59 240.523 178.882 240.523 179.218V182.6H239.56V176.664H240.523V177.594L241.061 176.798C241.322 176.619 241.599 176.53 241.89 176.53ZM248.311 182.6H247.348V181.648L246.9 182.286C246.729 182.428 246.501 182.54 246.217 182.622C245.933 182.712 245.638 182.757 245.332 182.757C244.899 182.757 244.515 182.682 244.179 182.533C243.843 182.376 243.559 182.163 243.327 181.894C243.103 181.618 242.932 181.297 242.812 180.931C242.693 180.558 242.633 180.155 242.633 179.722C242.633 179.169 242.711 178.691 242.868 178.288C243.025 177.885 243.238 177.553 243.507 177.291C243.775 177.03 244.085 176.836 244.436 176.709C244.787 176.574 245.153 176.507 245.534 176.507C245.78 176.507 246.042 176.541 246.318 176.608C246.594 176.675 246.807 176.772 246.956 176.899L247.348 177.482V174.368H248.311V182.6ZM245.478 182.018C245.724 182.018 245.959 181.977 246.183 181.894C246.407 181.812 246.605 181.678 246.777 181.491C246.956 181.305 247.094 181.066 247.191 180.774C247.296 180.476 247.348 180.114 247.348 179.688V179.363C247.348 178.982 247.292 178.658 247.18 178.389C247.076 178.12 246.934 177.904 246.755 177.739C246.583 177.568 246.389 177.444 246.172 177.37C245.963 177.288 245.75 177.246 245.534 177.246C245.273 177.246 245.03 177.299 244.806 177.403C244.582 177.5 244.384 177.65 244.212 177.851C244.048 178.045 243.917 178.292 243.82 178.59C243.731 178.882 243.686 179.221 243.686 179.61C243.686 179.946 243.723 180.259 243.798 180.55C243.873 180.842 243.985 181.099 244.134 181.323C244.283 181.54 244.47 181.712 244.694 181.838C244.918 181.958 245.179 182.018 245.478 182.018ZM252.736 176.507C252.945 176.507 253.117 176.574 253.251 176.709C253.386 176.843 253.453 177.015 253.453 177.224C253.453 177.433 253.386 177.605 253.251 177.739C253.117 177.874 252.945 177.941 252.736 177.941C252.527 177.941 252.355 177.874 252.221 177.739C252.086 177.605 252.019 177.433 252.019 177.224C252.019 177.015 252.086 176.843 252.221 176.709C252.355 176.574 252.527 176.507 252.736 176.507ZM252.736 181.323C252.945 181.323 253.117 181.39 253.251 181.525C253.386 181.659 253.453 181.831 253.453 182.04C253.453 182.249 253.386 182.421 253.251 182.555C253.117 182.69 252.945 182.757 252.736 182.757C252.527 182.757 252.355 182.69 252.221 182.555C252.086 182.421 252.019 182.249 252.019 182.04C252.019 181.831 252.086 181.659 252.221 181.525C252.355 181.39 252.527 181.323 252.736 181.323ZM261.03 182.6H260.067V175.891L257.939 177.157V176.138L259.574 175.118C259.724 175.021 259.865 174.958 260 174.928C260.142 174.891 260.28 174.872 260.414 174.872H261.03V182.6ZM266.418 177.504C266.851 177.504 267.228 177.571 267.549 177.706C267.871 177.833 268.136 178.012 268.345 178.243C268.561 178.475 268.722 178.751 268.826 179.072C268.938 179.386 268.994 179.725 268.994 180.091C268.994 180.517 268.916 180.898 268.759 181.234C268.61 181.562 268.408 181.838 268.154 182.062C267.9 182.286 267.605 182.458 267.269 182.578C266.941 182.697 266.597 182.757 266.239 182.757C265.455 182.757 264.843 182.574 264.402 182.208C263.962 181.835 263.704 181.282 263.629 180.55L263.618 180.438H264.581L264.604 180.55C264.693 180.998 264.865 181.353 265.119 181.614C265.373 181.868 265.743 181.995 266.228 181.995C266.743 181.995 267.154 181.835 267.46 181.514C267.766 181.193 267.919 180.741 267.919 180.158C267.919 179.576 267.773 179.117 267.482 178.781C267.191 178.437 266.788 178.266 266.273 178.266C265.914 178.266 265.604 178.348 265.343 178.512C265.082 178.676 264.854 178.96 264.66 179.363H263.741L264.279 174.872H268.669V175.656H265.063L264.716 178.344L265.197 177.829C265.556 177.612 265.963 177.504 266.418 177.504Z" fill="#435452"/>
<rect x="198" y="194.3" width="6.4" height="6.4" rx="3.2" fill="#B4DDF3"/>
<path opacity="0.8" d="M216.055 199.144C216.055 199.271 216.055 199.391 216.055 199.503C216.055 199.615 216.047 199.727 216.032 199.839C216.002 200.16 215.924 200.462 215.797 200.746C215.678 201.029 215.498 201.276 215.259 201.485C215.028 201.694 214.737 201.858 214.386 201.978C214.035 202.097 213.624 202.157 213.154 202.157C212.683 202.157 212.273 202.097 211.922 201.978C211.571 201.858 211.276 201.694 211.037 201.485C210.806 201.276 210.626 201.029 210.499 200.746C210.38 200.462 210.305 200.16 210.275 199.839C210.26 199.727 210.253 199.615 210.253 199.503C210.253 199.391 210.253 199.271 210.253 199.144V194.272H211.216V199.055C211.216 199.181 211.216 199.301 211.216 199.413C211.216 199.525 211.224 199.633 211.239 199.738C211.283 200.231 211.463 200.63 211.776 200.936C212.097 201.242 212.556 201.395 213.154 201.395C213.751 201.395 214.207 201.242 214.52 200.936C214.841 200.63 215.024 200.231 215.069 199.738C215.084 199.633 215.091 199.525 215.091 199.413C215.091 199.301 215.091 199.181 215.091 199.055V194.272H216.055V199.144ZM222.659 197.643C222.674 197.793 222.681 197.942 222.681 198.091C222.681 198.233 222.681 198.424 222.681 198.663V202H221.718V198.73C221.718 198.58 221.718 198.439 221.718 198.304C221.718 198.17 221.71 198.028 221.695 197.879C221.666 197.528 221.546 197.24 221.337 197.016C221.135 196.785 220.803 196.669 220.34 196.669C220.109 196.669 219.888 196.717 219.679 196.815C219.47 196.904 219.287 197.057 219.131 197.274C218.974 197.483 218.851 197.763 218.761 198.114C218.671 198.457 218.627 198.883 218.627 199.391V202H217.663V196.064H218.627V197.083L218.996 196.4C219.25 196.206 219.493 196.075 219.724 196.008C219.963 195.941 220.236 195.907 220.542 195.907C221.199 195.907 221.703 196.068 222.054 196.389C222.412 196.703 222.614 197.121 222.659 197.643ZM224.784 194.115C224.956 194.115 225.101 194.175 225.221 194.295C225.34 194.414 225.4 194.56 225.4 194.731C225.4 194.903 225.34 195.049 225.221 195.168C225.101 195.288 224.956 195.347 224.784 195.347C224.612 195.347 224.467 195.288 224.347 195.168C224.228 195.049 224.168 194.903 224.168 194.731C224.168 194.56 224.228 194.414 224.347 194.295C224.467 194.175 224.612 194.115 224.784 194.115ZM224.302 202V196.064H225.266V202H224.302ZM229.581 202H228.405L226.154 196.064H227.218L229.032 201.295L230.813 196.064H231.832L229.581 202ZM237.509 198.864C237.509 198.909 237.509 198.972 237.509 199.055C237.509 199.129 237.501 199.219 237.486 199.323H233.186C233.208 199.712 233.268 200.04 233.365 200.309C233.462 200.578 233.585 200.794 233.734 200.959C233.891 201.123 234.067 201.242 234.261 201.317C234.462 201.384 234.671 201.418 234.888 201.418C235.276 201.418 235.612 201.302 235.896 201.071C236.18 200.839 236.355 200.511 236.422 200.085H237.43C237.371 200.443 237.259 200.753 237.094 201.015C236.938 201.276 236.74 201.492 236.501 201.664C236.269 201.828 236.012 201.952 235.728 202.034C235.444 202.116 235.149 202.157 234.843 202.157C234.455 202.157 234.097 202.093 233.768 201.967C233.439 201.84 233.156 201.649 232.917 201.395C232.678 201.134 232.487 200.809 232.346 200.421C232.211 200.033 232.144 199.577 232.144 199.055C232.144 198.569 232.215 198.136 232.357 197.755C232.499 197.367 232.693 197.035 232.939 196.759C233.193 196.482 233.492 196.273 233.835 196.131C234.186 195.982 234.563 195.907 234.966 195.907C235.377 195.907 235.739 195.982 236.053 196.131C236.366 196.273 236.631 196.475 236.848 196.736C237.065 196.997 237.229 197.311 237.341 197.677C237.453 198.035 237.509 198.431 237.509 198.864ZM234.944 196.647C234.474 196.647 234.078 196.811 233.757 197.139C233.443 197.468 233.257 197.949 233.197 198.584H236.534C236.49 197.964 236.337 197.487 236.075 197.151C235.814 196.815 235.437 196.647 234.944 196.647ZM241.113 195.93C241.278 195.93 241.412 195.956 241.516 196.008V196.736C241.263 196.721 241.027 196.747 240.811 196.815C240.594 196.882 240.408 196.994 240.251 197.151C240.094 197.3 239.971 197.498 239.881 197.744C239.792 197.991 239.747 198.282 239.747 198.618V202H238.784V196.064H239.747V196.994L240.284 196.199C240.546 196.019 240.822 195.93 241.113 195.93ZM244.205 195.907C244.877 195.907 245.393 196.079 245.751 196.423C246.117 196.766 246.33 197.21 246.389 197.755H245.381C245.314 197.404 245.176 197.132 244.967 196.938C244.758 196.744 244.478 196.647 244.127 196.647C243.791 196.647 243.541 196.729 243.377 196.893C243.22 197.057 243.141 197.27 243.141 197.531C243.141 197.83 243.257 198.054 243.489 198.203C243.72 198.345 244.037 198.468 244.441 198.573C245.127 198.752 245.635 198.987 245.964 199.279C246.292 199.57 246.457 199.969 246.457 200.477C246.457 200.753 246.401 201 246.289 201.216C246.177 201.425 246.02 201.601 245.818 201.743C245.624 201.877 245.393 201.978 245.124 202.045C244.855 202.12 244.564 202.157 244.25 202.157C243.944 202.157 243.657 202.12 243.388 202.045C243.126 201.978 242.895 201.866 242.693 201.709C242.492 201.552 242.324 201.354 242.189 201.115C242.055 200.876 241.965 200.589 241.921 200.253H242.929C243.011 200.686 243.175 200.988 243.421 201.16C243.675 201.332 243.974 201.418 244.317 201.418C244.638 201.418 244.911 201.347 245.135 201.205C245.359 201.056 245.471 200.839 245.471 200.555C245.471 200.272 245.363 200.044 245.146 199.872C244.93 199.7 244.571 199.547 244.071 199.413C243.802 199.338 243.552 199.256 243.321 199.167C243.089 199.069 242.887 198.954 242.716 198.819C242.544 198.677 242.406 198.513 242.301 198.327C242.204 198.132 242.156 197.905 242.156 197.643C242.156 197.098 242.342 196.673 242.716 196.367C243.097 196.06 243.593 195.907 244.205 195.907ZM248.103 194.115C248.275 194.115 248.42 194.175 248.54 194.295C248.659 194.414 248.719 194.56 248.719 194.731C248.719 194.903 248.659 195.049 248.54 195.168C248.42 195.288 248.275 195.347 248.103 195.347C247.931 195.347 247.785 195.288 247.666 195.168C247.547 195.049 247.487 194.903 247.487 194.731C247.487 194.56 247.547 194.414 247.666 194.295C247.785 194.175 247.931 194.115 248.103 194.115ZM247.621 202V196.064H248.584V202H247.621ZM251.444 200.264C251.444 200.369 251.444 200.451 251.444 200.511C251.444 200.57 251.447 200.641 251.455 200.723C251.477 201.007 251.559 201.19 251.701 201.272C251.843 201.354 252.104 201.373 252.485 201.328V202.034C252.343 202.056 252.205 202.071 252.071 202.079C251.936 202.086 251.802 202.09 251.668 202.09C251.294 202.09 251.01 202.011 250.816 201.855C250.63 201.69 250.521 201.421 250.492 201.048C250.484 200.966 250.48 200.865 250.48 200.746C250.48 200.626 250.48 200.481 250.48 200.309V196.848H249.685V196.109H250.48V194.731H251.444V196.109H252.552V196.848H251.444V200.264ZM256.209 202.504C255.97 203.139 255.682 203.605 255.346 203.904C255.018 204.203 254.611 204.352 254.126 204.352C254.021 204.352 253.932 204.352 253.857 204.352C253.782 204.352 253.708 204.345 253.633 204.33V203.546C253.708 203.553 253.771 203.557 253.823 203.557C253.876 203.557 253.928 203.557 253.98 203.557C254.279 203.557 254.529 203.482 254.73 203.333C254.94 203.184 255.119 202.911 255.268 202.515L255.346 202.303L252.983 196.064H254.07L255.839 201.283L257.598 196.064H258.65L256.209 202.504ZM264.413 195.907C264.921 195.907 265.358 195.993 265.723 196.165C266.097 196.329 266.403 196.553 266.642 196.837C266.881 197.121 267.06 197.453 267.179 197.834C267.299 198.215 267.359 198.614 267.359 199.032C267.359 199.45 267.299 199.85 267.179 200.231C267.06 200.604 266.881 200.936 266.642 201.227C266.403 201.511 266.097 201.739 265.723 201.911C265.358 202.075 264.921 202.157 264.413 202.157C263.913 202.157 263.476 202.075 263.103 201.911C262.729 201.739 262.423 201.511 262.184 201.227C261.945 200.936 261.766 200.604 261.647 200.231C261.527 199.85 261.467 199.45 261.467 199.032C261.467 198.614 261.527 198.215 261.647 197.834C261.766 197.453 261.945 197.121 262.184 196.837C262.423 196.553 262.729 196.329 263.103 196.165C263.476 195.993 263.913 195.907 264.413 195.907ZM264.413 201.418C264.712 201.418 264.977 201.358 265.208 201.239C265.447 201.119 265.645 200.955 265.802 200.746C265.966 200.537 266.089 200.287 266.171 199.995C266.261 199.697 266.306 199.376 266.306 199.032C266.306 198.681 266.261 198.36 266.171 198.069C266.089 197.778 265.966 197.528 265.802 197.319C265.645 197.102 265.447 196.938 265.208 196.826C264.977 196.706 264.712 196.647 264.413 196.647C264.114 196.647 263.846 196.706 263.607 196.826C263.375 196.938 263.177 197.102 263.013 197.319C262.856 197.528 262.733 197.778 262.643 198.069C262.561 198.36 262.52 198.681 262.52 199.032C262.52 199.376 262.561 199.697 262.643 199.995C262.733 200.287 262.856 200.537 263.013 200.746C263.177 200.955 263.375 201.119 263.607 201.239C263.846 201.358 264.114 201.418 264.413 201.418ZM269.564 194.922C269.549 195.004 269.538 195.105 269.531 195.224C269.531 195.344 269.531 195.444 269.531 195.527V196.109H270.752V196.848H269.531V202H268.568V196.848H267.929V196.109H268.568V195.616C268.568 195.504 268.568 195.385 268.568 195.258C268.575 195.123 268.586 195.004 268.601 194.899C268.653 194.466 268.814 194.134 269.083 193.903C269.359 193.671 269.721 193.555 270.169 193.555C270.296 193.555 270.416 193.563 270.528 193.578C270.64 193.585 270.748 193.596 270.852 193.611V194.407C270.486 194.339 270.188 194.351 269.956 194.44C269.732 194.522 269.602 194.683 269.564 194.922ZM282.185 202H281.222V198.024C281.222 197.539 281.222 197.046 281.222 196.546C281.222 196.038 281.229 195.571 281.244 195.146C281.117 195.571 280.968 196.038 280.796 196.546C280.632 197.053 280.468 197.543 280.304 198.013L278.937 202H277.728L276.339 197.991C276.182 197.528 276.021 197.046 275.857 196.546C275.693 196.045 275.547 195.586 275.42 195.168C275.435 195.594 275.443 196.057 275.443 196.557C275.443 197.057 275.443 197.546 275.443 198.024V202H274.48V194.272H276.07L278.355 201.183L280.628 194.272H282.185V202ZM284.372 194.115C284.543 194.115 284.689 194.175 284.808 194.295C284.928 194.414 284.988 194.56 284.988 194.731C284.988 194.903 284.928 195.049 284.808 195.168C284.689 195.288 284.543 195.347 284.372 195.347C284.2 195.347 284.054 195.288 283.935 195.168C283.815 195.049 283.756 194.903 283.756 194.731C283.756 194.56 283.815 194.414 283.935 194.295C284.054 194.175 284.2 194.115 284.372 194.115ZM283.89 202V196.064H284.853V202H283.89ZM288.855 195.907C289.571 195.907 290.146 196.101 290.579 196.49C291.013 196.878 291.274 197.401 291.363 198.058H290.355C290.146 197.117 289.639 196.647 288.832 196.647C288.601 196.647 288.381 196.695 288.171 196.792C287.962 196.882 287.779 197.024 287.623 197.218C287.466 197.404 287.343 197.643 287.253 197.935C287.163 198.226 287.119 198.573 287.119 198.976C287.119 199.409 287.163 199.779 287.253 200.085C287.343 200.391 287.462 200.645 287.611 200.847C287.761 201.041 287.933 201.186 288.127 201.283C288.328 201.373 288.541 201.418 288.765 201.418C289.161 201.418 289.489 201.309 289.751 201.093C290.012 200.869 290.195 200.54 290.299 200.107H291.307C291.158 200.802 290.852 201.317 290.389 201.653C289.934 201.989 289.374 202.157 288.709 202.157C288.336 202.157 287.985 202.097 287.656 201.978C287.335 201.858 287.055 201.672 286.816 201.418C286.585 201.164 286.402 200.843 286.267 200.455C286.133 200.059 286.066 199.588 286.066 199.043C286.066 198.543 286.141 198.099 286.29 197.711C286.439 197.322 286.641 196.994 286.895 196.725C287.156 196.456 287.455 196.255 287.791 196.12C288.127 195.978 288.481 195.907 288.855 195.907ZM297.482 197.643C297.497 197.793 297.504 197.942 297.504 198.091C297.504 198.233 297.504 198.424 297.504 198.663V202H296.541V198.73C296.541 198.58 296.541 198.439 296.541 198.304C296.541 198.17 296.534 198.028 296.519 197.879C296.489 197.528 296.369 197.236 296.16 197.005C295.959 196.766 295.627 196.654 295.164 196.669C294.932 196.676 294.712 196.729 294.503 196.826C294.294 196.915 294.111 197.068 293.954 197.285C293.797 197.494 293.674 197.77 293.584 198.114C293.495 198.457 293.45 198.883 293.45 199.391V202H292.487V193.712H293.45V197.083L293.82 196.4C294.073 196.206 294.316 196.075 294.548 196.008C294.787 195.941 295.059 195.907 295.365 195.907C296.022 195.907 296.526 196.068 296.877 196.389C297.236 196.703 297.437 197.121 297.482 197.643ZM299.607 194.115C299.779 194.115 299.925 194.175 300.044 194.295C300.164 194.414 300.223 194.56 300.223 194.731C300.223 194.903 300.164 195.049 300.044 195.168C299.925 195.288 299.779 195.347 299.607 195.347C299.436 195.347 299.29 195.288 299.171 195.168C299.051 195.049 298.991 194.903 298.991 194.731C298.991 194.56 299.051 194.414 299.171 194.295C299.29 194.175 299.436 194.115 299.607 194.115ZM299.126 202V196.064H300.089V202H299.126ZM306.98 200.544C306.98 200.731 306.98 200.929 306.98 201.138C306.98 201.347 306.976 201.533 306.969 201.698C306.939 202.571 306.674 203.232 306.174 203.68C305.681 204.128 305.005 204.352 304.147 204.352C303.295 204.352 302.653 204.184 302.22 203.848C301.795 203.512 301.552 203.027 301.492 202.392L301.481 202.28H302.455L302.467 202.381C302.504 202.747 302.664 203.042 302.948 203.266C303.232 203.497 303.631 203.613 304.147 203.613C304.736 203.613 305.188 203.452 305.502 203.131C305.815 202.818 305.983 202.373 306.006 201.799C306.013 201.657 306.017 201.537 306.017 201.44C306.017 201.336 306.017 201.239 306.017 201.149V201.048L305.569 201.687C305.397 201.828 305.17 201.94 304.886 202.023C304.602 202.112 304.307 202.157 304.001 202.157C303.568 202.157 303.183 202.082 302.847 201.933C302.511 201.776 302.228 201.563 301.996 201.295C301.772 201.018 301.6 200.697 301.481 200.331C301.362 199.958 301.302 199.555 301.302 199.122C301.302 198.569 301.38 198.091 301.537 197.688C301.694 197.285 301.907 196.953 302.175 196.691C302.444 196.43 302.754 196.236 303.105 196.109C303.456 195.975 303.822 195.907 304.203 195.907C304.449 195.907 304.71 195.941 304.987 196.008C305.263 196.075 305.476 196.172 305.625 196.299L306.017 196.882V196.064H306.98V200.544ZM304.147 201.418C304.393 201.418 304.628 201.377 304.852 201.295C305.076 201.212 305.274 201.078 305.446 200.891C305.625 200.705 305.763 200.466 305.86 200.175C305.965 199.876 306.017 199.514 306.017 199.088V198.763C306.017 198.383 305.961 198.058 305.849 197.789C305.744 197.52 305.603 197.304 305.423 197.139C305.252 196.968 305.058 196.844 304.841 196.77C304.632 196.688 304.419 196.647 304.203 196.647C303.941 196.647 303.699 196.699 303.475 196.803C303.251 196.9 303.053 197.05 302.881 197.251C302.717 197.445 302.586 197.692 302.489 197.991C302.399 198.282 302.355 198.621 302.355 199.01C302.355 199.346 302.392 199.659 302.467 199.951C302.541 200.242 302.653 200.499 302.803 200.723C302.952 200.94 303.139 201.112 303.363 201.239C303.587 201.358 303.848 201.418 304.147 201.418ZM311.989 201.149L311.664 201.787C311.463 201.929 311.235 202.026 310.981 202.079C310.727 202.131 310.459 202.157 310.175 202.157C309.906 202.157 309.656 202.12 309.424 202.045C309.193 201.97 308.988 201.862 308.808 201.72C308.637 201.578 308.502 201.403 308.405 201.194C308.308 200.985 308.26 200.742 308.26 200.466C308.26 199.794 308.525 199.286 309.055 198.943C309.585 198.599 310.432 198.427 311.597 198.427H311.978V198.271C311.978 198.144 311.978 198.02 311.978 197.901C311.978 197.781 311.971 197.666 311.956 197.554C311.933 197.277 311.836 197.057 311.664 196.893C311.493 196.729 311.205 196.647 310.802 196.647C310.399 196.647 310.093 196.755 309.884 196.971C309.682 197.18 309.563 197.49 309.525 197.901H308.517C308.562 197.266 308.79 196.777 309.2 196.434C309.611 196.083 310.145 195.907 310.802 195.907C311.511 195.907 312.027 196.049 312.348 196.333C312.669 196.609 312.855 196.99 312.908 197.475C312.923 197.595 312.93 197.725 312.93 197.867C312.938 198.002 312.941 198.132 312.941 198.259V200.488C312.941 200.712 312.949 200.936 312.964 201.16C312.979 201.384 313.008 201.664 313.053 202H312.09L311.989 201.149ZM310.5 201.418C310.948 201.418 311.306 201.276 311.575 200.992C311.844 200.701 311.978 200.287 311.978 199.749V199.144C311.164 199.084 310.515 199.152 310.029 199.346C309.551 199.532 309.312 199.88 309.312 200.387C309.312 200.746 309.417 201.007 309.626 201.171C309.843 201.336 310.134 201.418 310.5 201.418ZM319.63 197.643C319.645 197.793 319.653 197.942 319.653 198.091C319.653 198.233 319.653 198.424 319.653 198.663V202H318.69V198.73C318.69 198.58 318.69 198.439 318.69 198.304C318.69 198.17 318.682 198.028 318.667 197.879C318.637 197.528 318.518 197.24 318.309 197.016C318.107 196.785 317.775 196.669 317.312 196.669C317.081 196.669 316.86 196.717 316.651 196.815C316.442 196.904 316.259 197.057 316.102 197.274C315.946 197.483 315.822 197.763 315.733 198.114C315.643 198.457 315.598 198.883 315.598 199.391V202H314.635V196.064H315.598V197.083L315.968 196.4C316.222 196.206 316.465 196.075 316.696 196.008C316.935 195.941 317.208 195.907 317.514 195.907C318.171 195.907 318.675 196.068 319.026 196.389C319.384 196.703 319.586 197.121 319.63 197.643ZM323.994 195.907C324.203 195.907 324.375 195.975 324.509 196.109C324.643 196.243 324.711 196.415 324.711 196.624C324.711 196.833 324.643 197.005 324.509 197.139C324.375 197.274 324.203 197.341 323.994 197.341C323.785 197.341 323.613 197.274 323.479 197.139C323.344 197.005 323.277 196.833 323.277 196.624C323.277 196.415 323.344 196.243 323.479 196.109C323.613 195.975 323.785 195.907 323.994 195.907ZM323.994 200.723C324.203 200.723 324.375 200.791 324.509 200.925C324.643 201.059 324.711 201.231 324.711 201.44C324.711 201.649 324.643 201.821 324.509 201.955C324.375 202.09 324.203 202.157 323.994 202.157C323.785 202.157 323.613 202.09 323.479 201.955C323.344 201.821 323.277 201.649 323.277 201.44C323.277 201.231 323.344 201.059 323.479 200.925C323.613 200.791 323.785 200.723 323.994 200.723ZM332.288 202H331.325V195.291L329.197 196.557V195.538L330.832 194.519C330.981 194.421 331.123 194.358 331.258 194.328C331.399 194.291 331.538 194.272 331.672 194.272H332.288V202ZM340.095 201.216V202H334.91V201.451L337.71 198.595C337.934 198.364 338.128 198.151 338.292 197.957C338.464 197.763 338.606 197.58 338.718 197.408C338.83 197.236 338.912 197.065 338.964 196.893C339.024 196.721 339.054 196.542 339.054 196.355C339.054 196.154 339.024 195.963 338.964 195.784C338.912 195.605 338.826 195.448 338.706 195.314C338.594 195.179 338.449 195.075 338.27 195C338.098 194.918 337.896 194.877 337.665 194.877C337.165 194.877 336.788 195.026 336.534 195.325C336.287 195.616 336.134 196.034 336.074 196.579L336.063 196.691H335.1L335.111 196.579C335.193 195.765 335.462 195.153 335.918 194.743C336.381 194.324 337 194.115 337.777 194.115C338.173 194.115 338.516 194.171 338.807 194.283C339.106 194.395 339.352 194.548 339.546 194.743C339.741 194.937 339.886 195.164 339.983 195.426C340.08 195.68 340.129 195.952 340.129 196.243C340.129 196.505 340.092 196.751 340.017 196.983C339.942 197.214 339.826 197.449 339.67 197.688C339.52 197.92 339.326 198.166 339.087 198.427C338.856 198.689 338.576 198.98 338.247 199.301L336.31 201.216H340.095Z" fill="#435452"/>
<rect x="198" y="213.7" width="6.4" height="6.4" rx="3.2" fill="#CAF5CC"/>
<path opacity="0.8" d="M213.109 221.4H212.146V218.354L209.413 213.672H210.522L212.672 217.424L214.755 213.672H215.842L213.109 218.354V221.4ZM219.261 220.549L218.936 221.187C218.735 221.329 218.507 221.426 218.253 221.479C217.999 221.531 217.73 221.557 217.447 221.557C217.178 221.557 216.928 221.52 216.696 221.445C216.465 221.37 216.26 221.262 216.08 221.12C215.909 220.978 215.774 220.803 215.677 220.594C215.58 220.385 215.532 220.142 215.532 219.866C215.532 219.194 215.797 218.686 216.327 218.343C216.857 217.999 217.704 217.827 218.869 217.827H219.25V217.671C219.25 217.544 219.25 217.42 219.25 217.301C219.25 217.181 219.242 217.066 219.228 216.954C219.205 216.677 219.108 216.457 218.936 216.293C218.765 216.129 218.477 216.047 218.074 216.047C217.671 216.047 217.365 216.155 217.156 216.371C216.954 216.58 216.834 216.89 216.797 217.301H215.789C215.834 216.666 216.062 216.177 216.472 215.834C216.883 215.483 217.417 215.307 218.074 215.307C218.783 215.307 219.298 215.449 219.62 215.733C219.941 216.009 220.127 216.39 220.18 216.875C220.194 216.995 220.202 217.125 220.202 217.267C220.209 217.402 220.213 217.532 220.213 217.659V219.888C220.213 220.112 220.221 220.336 220.236 220.56C220.25 220.784 220.28 221.064 220.325 221.4H219.362L219.261 220.549ZM217.772 220.818C218.22 220.818 218.578 220.676 218.847 220.392C219.116 220.101 219.25 219.687 219.25 219.149V218.544C218.436 218.484 217.786 218.552 217.301 218.746C216.823 218.932 216.584 219.28 216.584 219.787C216.584 220.146 216.689 220.407 216.898 220.571C217.114 220.736 217.406 220.818 217.772 220.818ZM222.826 219.698C222.826 219.787 222.826 219.881 222.826 219.978C222.826 220.067 222.829 220.161 222.837 220.258C222.852 220.452 222.911 220.583 223.016 220.65C223.12 220.717 223.303 220.736 223.565 220.706V221.4C223.46 221.415 223.348 221.426 223.229 221.434C223.109 221.441 222.994 221.445 222.882 221.445C222.605 221.445 222.37 221.385 222.176 221.266C221.989 221.139 221.888 220.889 221.874 220.515C221.866 220.411 221.862 220.295 221.862 220.168C221.862 220.041 221.862 219.896 221.862 219.731V213.168H222.826V219.698ZM229.546 218.264C229.546 218.309 229.546 218.372 229.546 218.455C229.546 218.529 229.539 218.619 229.524 218.723H225.223C225.246 219.112 225.305 219.44 225.402 219.709C225.499 219.978 225.623 220.194 225.772 220.359C225.929 220.523 226.104 220.642 226.298 220.717C226.5 220.784 226.709 220.818 226.926 220.818C227.314 220.818 227.65 220.702 227.934 220.471C228.217 220.239 228.393 219.911 228.46 219.485H229.468C229.408 219.843 229.296 220.153 229.132 220.415C228.975 220.676 228.777 220.892 228.538 221.064C228.307 221.228 228.049 221.352 227.766 221.434C227.482 221.516 227.187 221.557 226.881 221.557C226.492 221.557 226.134 221.493 225.806 221.367C225.477 221.24 225.193 221.049 224.954 220.795C224.715 220.534 224.525 220.209 224.383 219.821C224.249 219.433 224.182 218.977 224.182 218.455C224.182 217.969 224.252 217.536 224.394 217.155C224.536 216.767 224.73 216.435 224.977 216.159C225.231 215.882 225.529 215.673 225.873 215.531C226.224 215.382 226.601 215.307 227.004 215.307C227.415 215.307 227.777 215.382 228.09 215.531C228.404 215.673 228.669 215.875 228.886 216.136C229.102 216.397 229.266 216.711 229.378 217.077C229.49 217.435 229.546 217.831 229.546 218.264ZM226.982 216.047C226.511 216.047 226.115 216.211 225.794 216.539C225.481 216.868 225.294 217.349 225.234 217.984H228.572C228.527 217.364 228.374 216.887 228.113 216.551C227.851 216.215 227.474 216.047 226.982 216.047ZM239.264 218.544C239.264 218.671 239.264 218.791 239.264 218.903C239.264 219.015 239.257 219.127 239.242 219.239C239.212 219.56 239.133 219.862 239.006 220.146C238.887 220.429 238.708 220.676 238.469 220.885C238.237 221.094 237.946 221.258 237.595 221.378C237.244 221.497 236.834 221.557 236.363 221.557C235.893 221.557 235.482 221.497 235.131 221.378C234.78 221.258 234.485 221.094 234.246 220.885C234.015 220.676 233.836 220.429 233.709 220.146C233.589 219.862 233.515 219.56 233.485 219.239C233.47 219.127 233.462 219.015 233.462 218.903C233.462 218.791 233.462 218.671 233.462 218.544V213.672H234.426V218.455C234.426 218.581 234.426 218.701 234.426 218.813C234.426 218.925 234.433 219.033 234.448 219.138C234.493 219.631 234.672 220.03 234.986 220.336C235.307 220.642 235.766 220.795 236.363 220.795C236.961 220.795 237.416 220.642 237.73 220.336C238.051 220.03 238.234 219.631 238.278 219.138C238.293 219.033 238.301 218.925 238.301 218.813C238.301 218.701 238.301 218.581 238.301 218.455V213.672H239.264V218.544ZM245.868 217.043C245.883 217.193 245.89 217.342 245.89 217.491C245.89 217.633 245.89 217.824 245.89 218.063V221.4H244.927V218.13C244.927 217.98 244.927 217.839 244.927 217.704C244.927 217.57 244.92 217.428 244.905 217.279C244.875 216.928 244.755 216.64 244.546 216.416C244.345 216.185 244.012 216.069 243.55 216.069C243.318 216.069 243.098 216.117 242.889 216.215C242.68 216.304 242.497 216.457 242.34 216.674C242.183 216.883 242.06 217.163 241.97 217.514C241.881 217.857 241.836 218.283 241.836 218.791V221.4H240.873V215.464H241.836V216.483L242.206 215.8C242.459 215.606 242.702 215.475 242.934 215.408C243.172 215.341 243.445 215.307 243.751 215.307C244.408 215.307 244.912 215.468 245.263 215.789C245.622 216.103 245.823 216.521 245.868 217.043ZM247.993 213.515C248.165 213.515 248.311 213.575 248.43 213.695C248.55 213.814 248.609 213.96 248.609 214.131C248.609 214.303 248.55 214.449 248.43 214.568C248.311 214.688 248.165 214.747 247.993 214.747C247.822 214.747 247.676 214.688 247.557 214.568C247.437 214.449 247.377 214.303 247.377 214.131C247.377 213.96 247.437 213.814 247.557 213.695C247.676 213.575 247.822 213.515 247.993 213.515ZM247.512 221.4V215.464H248.475V221.4H247.512ZM252.79 221.4H251.614L249.363 215.464H250.427L252.241 220.695L254.022 215.464H255.041L252.79 221.4ZM260.718 218.264C260.718 218.309 260.718 218.372 260.718 218.455C260.718 218.529 260.711 218.619 260.696 218.723H256.395C256.417 219.112 256.477 219.44 256.574 219.709C256.671 219.978 256.794 220.194 256.944 220.359C257.101 220.523 257.276 220.642 257.47 220.717C257.672 220.784 257.881 220.818 258.097 220.818C258.486 220.818 258.822 220.702 259.105 220.471C259.389 220.239 259.565 219.911 259.632 219.485H260.64C260.58 219.843 260.468 220.153 260.304 220.415C260.147 220.676 259.949 220.892 259.71 221.064C259.479 221.228 259.221 221.352 258.937 221.434C258.654 221.516 258.359 221.557 258.053 221.557C257.664 221.557 257.306 221.493 256.977 221.367C256.649 221.24 256.365 221.049 256.126 220.795C255.887 220.534 255.697 220.209 255.555 219.821C255.421 219.433 255.353 218.977 255.353 218.455C255.353 217.969 255.424 217.536 255.566 217.155C255.708 216.767 255.902 216.435 256.149 216.159C256.402 215.882 256.701 215.673 257.045 215.531C257.396 215.382 257.773 215.307 258.176 215.307C258.586 215.307 258.949 215.382 259.262 215.531C259.576 215.673 259.841 215.875 260.057 216.136C260.274 216.397 260.438 216.711 260.55 217.077C260.662 217.435 260.718 217.831 260.718 218.264ZM258.153 216.047C257.683 216.047 257.287 216.211 256.966 216.539C256.653 216.868 256.466 217.349 256.406 217.984H259.744C259.699 217.364 259.546 216.887 259.285 216.551C259.023 216.215 258.646 216.047 258.153 216.047ZM264.323 215.33C264.487 215.33 264.621 215.356 264.726 215.408V216.136C264.472 216.121 264.237 216.147 264.02 216.215C263.804 216.282 263.617 216.394 263.46 216.551C263.303 216.7 263.18 216.898 263.091 217.144C263.001 217.391 262.956 217.682 262.956 218.018V221.4H261.993V215.464H262.956V216.394L263.494 215.599C263.755 215.419 264.031 215.33 264.323 215.33ZM267.415 215.307C268.087 215.307 268.602 215.479 268.96 215.823C269.326 216.166 269.539 216.61 269.599 217.155H268.591C268.524 216.804 268.385 216.532 268.176 216.338C267.967 216.144 267.687 216.047 267.336 216.047C267 216.047 266.75 216.129 266.586 216.293C266.429 216.457 266.351 216.67 266.351 216.931C266.351 217.23 266.466 217.454 266.698 217.603C266.929 217.745 267.247 217.868 267.65 217.973C268.337 218.152 268.845 218.387 269.173 218.679C269.502 218.97 269.666 219.369 269.666 219.877C269.666 220.153 269.61 220.4 269.498 220.616C269.386 220.825 269.229 221.001 269.028 221.143C268.833 221.277 268.602 221.378 268.333 221.445C268.064 221.52 267.773 221.557 267.46 221.557C267.153 221.557 266.866 221.52 266.597 221.445C266.336 221.378 266.104 221.266 265.903 221.109C265.701 220.952 265.533 220.754 265.399 220.515C265.264 220.276 265.175 219.989 265.13 219.653H266.138C266.22 220.086 266.384 220.388 266.631 220.56C266.885 220.732 267.183 220.818 267.527 220.818C267.848 220.818 268.12 220.747 268.344 220.605C268.568 220.456 268.68 220.239 268.68 219.955C268.68 219.672 268.572 219.444 268.356 219.272C268.139 219.1 267.781 218.947 267.28 218.813C267.012 218.738 266.761 218.656 266.53 218.567C266.298 218.469 266.097 218.354 265.925 218.219C265.753 218.077 265.615 217.913 265.511 217.727C265.414 217.532 265.365 217.305 265.365 217.043C265.365 216.498 265.552 216.073 265.925 215.767C266.306 215.46 266.802 215.307 267.415 215.307ZM271.312 213.515C271.484 213.515 271.629 213.575 271.749 213.695C271.868 213.814 271.928 213.96 271.928 214.131C271.928 214.303 271.868 214.449 271.749 214.568C271.629 214.688 271.484 214.747 271.312 214.747C271.14 214.747 270.995 214.688 270.875 214.568C270.756 214.449 270.696 214.303 270.696 214.131C270.696 213.96 270.756 213.814 270.875 213.695C270.995 213.575 271.14 213.515 271.312 213.515ZM270.831 221.4V215.464H271.794V221.4H270.831ZM274.653 219.664C274.653 219.769 274.653 219.851 274.653 219.911C274.653 219.97 274.657 220.041 274.664 220.123C274.687 220.407 274.769 220.59 274.911 220.672C275.052 220.754 275.314 220.773 275.695 220.728V221.434C275.553 221.456 275.415 221.471 275.28 221.479C275.146 221.486 275.011 221.49 274.877 221.49C274.504 221.49 274.22 221.411 274.026 221.255C273.839 221.09 273.731 220.821 273.701 220.448C273.693 220.366 273.69 220.265 273.69 220.146C273.69 220.026 273.69 219.881 273.69 219.709V216.248H272.895V215.509H273.69V214.131H274.653V215.509H275.762V216.248H274.653V219.664ZM279.418 221.904C279.179 222.539 278.892 223.005 278.556 223.304C278.227 223.603 277.82 223.752 277.335 223.752C277.231 223.752 277.141 223.752 277.066 223.752C276.992 223.752 276.917 223.745 276.842 223.73V222.946C276.917 222.953 276.98 222.957 277.033 222.957C277.085 222.957 277.137 222.957 277.189 222.957C277.488 222.957 277.738 222.882 277.94 222.733C278.149 222.584 278.328 222.311 278.477 221.915L278.556 221.703L276.193 215.464H277.279L279.049 220.683L280.807 215.464H281.86L279.418 221.904ZM285.472 215.307C285.681 215.307 285.853 215.375 285.987 215.509C286.122 215.643 286.189 215.815 286.189 216.024C286.189 216.233 286.122 216.405 285.987 216.539C285.853 216.674 285.681 216.741 285.472 216.741C285.263 216.741 285.091 216.674 284.957 216.539C284.822 216.405 284.755 216.233 284.755 216.024C284.755 215.815 284.822 215.643 284.957 215.509C285.091 215.375 285.263 215.307 285.472 215.307ZM285.472 220.123C285.681 220.123 285.853 220.191 285.987 220.325C286.122 220.459 286.189 220.631 286.189 220.84C286.189 221.049 286.122 221.221 285.987 221.355C285.853 221.49 285.681 221.557 285.472 221.557C285.263 221.557 285.091 221.49 284.957 221.355C284.822 221.221 284.755 221.049 284.755 220.84C284.755 220.631 284.822 220.459 284.957 220.325C285.091 220.191 285.263 220.123 285.472 220.123ZM292.501 213.515C293.367 213.515 294.039 213.803 294.517 214.378C294.994 214.953 295.233 215.882 295.233 217.167C295.233 217.943 295.151 218.611 294.987 219.171C294.83 219.724 294.614 220.179 294.337 220.538C294.061 220.889 293.74 221.146 293.374 221.311C293.016 221.475 292.639 221.557 292.243 221.557C291.914 221.557 291.608 221.508 291.325 221.411C291.048 221.314 290.806 221.176 290.597 220.997C290.395 220.81 290.227 220.59 290.093 220.336C289.966 220.075 289.887 219.787 289.857 219.474L289.846 219.362H290.877L290.899 219.474C291.078 220.355 291.552 220.795 292.321 220.795C292.583 220.795 292.822 220.739 293.038 220.627C293.262 220.515 293.453 220.336 293.609 220.09C293.774 219.843 293.904 219.526 294.001 219.138C294.098 218.742 294.158 218.264 294.181 217.704L293.744 218.399C293.535 218.57 293.318 218.697 293.094 218.779C292.87 218.854 292.616 218.891 292.333 218.891C291.929 218.891 291.567 218.828 291.246 218.701C290.933 218.567 290.664 218.384 290.44 218.152C290.223 217.921 290.055 217.644 289.936 217.323C289.824 217.002 289.768 216.651 289.768 216.271C289.768 215.86 289.835 215.487 289.969 215.151C290.111 214.807 290.302 214.516 290.541 214.277C290.787 214.038 291.078 213.851 291.414 213.717C291.75 213.583 292.112 213.515 292.501 213.515ZM292.501 218.13C292.717 218.13 292.922 218.089 293.117 218.007C293.318 217.924 293.49 217.801 293.632 217.637C293.781 217.473 293.897 217.271 293.979 217.032C294.069 216.786 294.113 216.502 294.113 216.181C294.113 215.912 294.072 215.662 293.99 215.431C293.915 215.199 293.807 214.997 293.665 214.826C293.531 214.654 293.363 214.52 293.161 214.423C292.967 214.325 292.747 214.277 292.501 214.277C292.262 214.277 292.038 214.322 291.829 214.411C291.627 214.501 291.451 214.632 291.302 214.803C291.16 214.968 291.048 215.165 290.966 215.397C290.884 215.621 290.843 215.875 290.843 216.159C290.843 216.427 290.873 216.681 290.933 216.92C291 217.159 291.101 217.368 291.235 217.547C291.369 217.727 291.541 217.868 291.75 217.973C291.959 218.077 292.209 218.13 292.501 218.13Z" fill="#435452"/>
<rect x="198" y="233.1" width="6.4" height="6.4" rx="3.2" fill="#9CE5CB"/>
<path opacity="0.8" d="M213.725 233.117C214.345 233.199 214.834 233.43 215.192 233.811C215.551 234.185 215.73 234.7 215.73 235.357C215.73 235.685 215.678 235.98 215.573 236.242C215.468 236.503 215.327 236.727 215.147 236.914C214.968 237.1 214.755 237.253 214.509 237.373C214.27 237.485 214.009 237.56 213.725 237.597C213.553 237.619 213.389 237.634 213.232 237.642C213.083 237.642 212.911 237.642 212.717 237.642H211.283V240.8H210.32V233.072H212.717C212.911 233.072 213.083 233.076 213.232 233.083C213.389 233.083 213.553 233.094 213.725 233.117ZM213.669 236.779C213.945 236.72 214.184 236.581 214.386 236.365C214.595 236.141 214.699 235.805 214.699 235.357C214.699 234.909 214.595 234.577 214.386 234.36C214.184 234.136 213.945 233.994 213.669 233.934C213.564 233.912 213.438 233.897 213.288 233.89C213.139 233.882 212.978 233.878 212.807 233.878H211.283V236.835H212.807C212.978 236.835 213.139 236.832 213.288 236.824C213.438 236.817 213.564 236.802 213.669 236.779ZM219.052 234.73C219.217 234.73 219.351 234.756 219.456 234.808V235.536C219.202 235.521 218.966 235.547 218.75 235.614C218.533 235.682 218.347 235.794 218.19 235.95C218.033 236.1 217.91 236.298 217.82 236.544C217.731 236.79 217.686 237.082 217.686 237.418V240.8H216.723V234.864H217.686V235.794L218.224 234.998C218.485 234.819 218.761 234.73 219.052 234.73ZM220.901 232.915C221.073 232.915 221.219 232.975 221.338 233.094C221.457 233.214 221.517 233.36 221.517 233.531C221.517 233.703 221.457 233.849 221.338 233.968C221.219 234.088 221.073 234.147 220.901 234.147C220.729 234.147 220.584 234.088 220.464 233.968C220.345 233.849 220.285 233.703 220.285 233.531C220.285 233.36 220.345 233.214 220.464 233.094C220.584 232.975 220.729 232.915 220.901 232.915ZM220.42 240.8V234.864H221.383V240.8H220.42ZM228.084 236.443C228.099 236.593 228.106 236.742 228.106 236.891C228.106 237.033 228.106 237.224 228.106 237.462V240.8H227.143V237.53C227.143 237.38 227.143 237.238 227.143 237.104C227.143 236.97 227.135 236.828 227.12 236.678C227.091 236.328 226.971 236.04 226.762 235.816C226.56 235.585 226.228 235.469 225.765 235.469C225.534 235.469 225.313 235.517 225.104 235.614C224.895 235.704 224.712 235.857 224.556 236.074C224.399 236.283 224.276 236.563 224.186 236.914C224.096 237.257 224.052 237.683 224.052 238.19V240.8H223.088V234.864H224.052V235.883L224.421 235.2C224.675 235.006 224.918 234.875 225.149 234.808C225.388 234.741 225.661 234.707 225.967 234.707C226.624 234.707 227.128 234.868 227.479 235.189C227.837 235.502 228.039 235.921 228.084 236.443ZM232.023 234.707C232.74 234.707 233.315 234.901 233.748 235.29C234.181 235.678 234.443 236.201 234.532 236.858H233.524C233.315 235.917 232.807 235.446 232.001 235.446C231.77 235.446 231.549 235.495 231.34 235.592C231.131 235.682 230.948 235.824 230.791 236.018C230.635 236.204 230.511 236.443 230.422 236.734C230.332 237.026 230.287 237.373 230.287 237.776C230.287 238.209 230.332 238.579 230.422 238.885C230.511 239.191 230.631 239.445 230.78 239.646C230.93 239.841 231.101 239.986 231.295 240.083C231.497 240.173 231.71 240.218 231.934 240.218C232.33 240.218 232.658 240.109 232.919 239.893C233.181 239.669 233.364 239.34 233.468 238.907H234.476C234.327 239.602 234.021 240.117 233.558 240.453C233.102 240.789 232.542 240.957 231.878 240.957C231.504 240.957 231.154 240.897 230.825 240.778C230.504 240.658 230.224 240.472 229.985 240.218C229.754 239.964 229.571 239.643 229.436 239.254C229.302 238.859 229.235 238.388 229.235 237.843C229.235 237.343 229.309 236.899 229.459 236.51C229.608 236.122 229.81 235.794 230.063 235.525C230.325 235.256 230.623 235.054 230.959 234.92C231.295 234.778 231.65 234.707 232.023 234.707ZM240.528 237.664C240.528 237.709 240.528 237.772 240.528 237.854C240.528 237.929 240.52 238.019 240.505 238.123H236.204C236.227 238.512 236.286 238.84 236.384 239.109C236.481 239.378 236.604 239.594 236.753 239.758C236.91 239.923 237.085 240.042 237.28 240.117C237.481 240.184 237.69 240.218 237.907 240.218C238.295 240.218 238.631 240.102 238.915 239.87C239.198 239.639 239.374 239.31 239.441 238.885H240.449C240.389 239.243 240.277 239.553 240.113 239.814C239.956 240.076 239.758 240.292 239.52 240.464C239.288 240.628 239.03 240.752 238.747 240.834C238.463 240.916 238.168 240.957 237.862 240.957C237.474 240.957 237.115 240.893 236.787 240.766C236.458 240.64 236.174 240.449 235.936 240.195C235.697 239.934 235.506 239.609 235.364 239.221C235.23 238.833 235.163 238.377 235.163 237.854C235.163 237.369 235.234 236.936 235.376 236.555C235.517 236.167 235.712 235.835 235.958 235.558C236.212 235.282 236.51 235.073 236.854 234.931C237.205 234.782 237.582 234.707 237.985 234.707C238.396 234.707 238.758 234.782 239.072 234.931C239.385 235.073 239.65 235.275 239.867 235.536C240.083 235.797 240.248 236.111 240.36 236.477C240.472 236.835 240.528 237.231 240.528 237.664ZM237.963 235.446C237.492 235.446 237.097 235.611 236.776 235.939C236.462 236.268 236.275 236.749 236.216 237.384H239.553C239.508 236.764 239.355 236.286 239.094 235.95C238.833 235.614 238.456 235.446 237.963 235.446ZM242.956 239.064C242.956 239.169 242.956 239.251 242.956 239.31C242.956 239.37 242.96 239.441 242.967 239.523C242.99 239.807 243.072 239.99 243.214 240.072C243.355 240.154 243.617 240.173 243.998 240.128V240.834C243.856 240.856 243.718 240.871 243.583 240.878C243.449 240.886 243.314 240.89 243.18 240.89C242.807 240.89 242.523 240.811 242.329 240.654C242.142 240.49 242.034 240.221 242.004 239.848C241.997 239.766 241.993 239.665 241.993 239.546C241.993 239.426 241.993 239.281 241.993 239.109V235.648H241.198V234.909H241.993V233.531H242.956V234.909H244.065V235.648H242.956V239.064ZM247.624 234.707C248.132 234.707 248.569 234.793 248.934 234.965C249.308 235.129 249.614 235.353 249.853 235.637C250.092 235.921 250.271 236.253 250.39 236.634C250.51 237.014 250.57 237.414 250.57 237.832C250.57 238.25 250.51 238.65 250.39 239.03C250.271 239.404 250.092 239.736 249.853 240.027C249.614 240.311 249.308 240.539 248.934 240.71C248.569 240.875 248.132 240.957 247.624 240.957C247.124 240.957 246.687 240.875 246.314 240.71C245.94 240.539 245.634 240.311 245.395 240.027C245.156 239.736 244.977 239.404 244.858 239.03C244.738 238.65 244.678 238.25 244.678 237.832C244.678 237.414 244.738 237.014 244.858 236.634C244.977 236.253 245.156 235.921 245.395 235.637C245.634 235.353 245.94 235.129 246.314 234.965C246.687 234.793 247.124 234.707 247.624 234.707ZM247.624 240.218C247.923 240.218 248.188 240.158 248.419 240.038C248.658 239.919 248.856 239.755 249.013 239.546C249.177 239.337 249.3 239.086 249.382 238.795C249.472 238.497 249.517 238.176 249.517 237.832C249.517 237.481 249.472 237.16 249.382 236.869C249.3 236.578 249.177 236.328 249.013 236.118C248.856 235.902 248.658 235.738 248.419 235.626C248.188 235.506 247.923 235.446 247.624 235.446C247.325 235.446 247.057 235.506 246.818 235.626C246.586 235.738 246.388 235.902 246.224 236.118C246.067 236.328 245.944 236.578 245.854 236.869C245.772 237.16 245.731 237.481 245.731 237.832C245.731 238.176 245.772 238.497 245.854 238.795C245.944 239.086 246.067 239.337 246.224 239.546C246.388 239.755 246.586 239.919 246.818 240.038C247.057 240.158 247.325 240.218 247.624 240.218ZM256.729 236.443C256.744 236.593 256.751 236.742 256.751 236.891C256.751 237.033 256.751 237.224 256.751 237.462V240.8H255.788V237.53C255.788 237.38 255.788 237.238 255.788 237.104C255.788 236.97 255.781 236.828 255.766 236.678C255.736 236.328 255.616 236.04 255.407 235.816C255.206 235.585 254.873 235.469 254.41 235.469C254.179 235.469 253.959 235.517 253.75 235.614C253.541 235.704 253.358 235.857 253.201 236.074C253.044 236.283 252.921 236.563 252.831 236.914C252.742 237.257 252.697 237.683 252.697 238.19V240.8H251.734V234.864H252.697V235.883L253.066 235.2C253.32 235.006 253.563 234.875 253.794 234.808C254.033 234.741 254.306 234.707 254.612 234.707C255.269 234.707 255.773 234.868 256.124 235.189C256.482 235.502 256.684 235.921 256.729 236.443ZM266.816 237.944C266.816 238.071 266.816 238.19 266.816 238.302C266.816 238.414 266.808 238.526 266.793 238.638C266.763 238.96 266.685 239.262 266.558 239.546C266.438 239.829 266.259 240.076 266.02 240.285C265.789 240.494 265.498 240.658 265.147 240.778C264.796 240.897 264.385 240.957 263.915 240.957C263.444 240.957 263.034 240.897 262.683 240.778C262.332 240.658 262.037 240.494 261.798 240.285C261.566 240.076 261.387 239.829 261.26 239.546C261.141 239.262 261.066 238.96 261.036 238.638C261.021 238.526 261.014 238.414 261.014 238.302C261.014 238.19 261.014 238.071 261.014 237.944V233.072H261.977V237.854C261.977 237.981 261.977 238.101 261.977 238.213C261.977 238.325 261.985 238.433 262 238.538C262.044 239.03 262.224 239.43 262.537 239.736C262.858 240.042 263.317 240.195 263.915 240.195C264.512 240.195 264.968 240.042 265.281 239.736C265.602 239.43 265.785 239.03 265.83 238.538C265.845 238.433 265.852 238.325 265.852 238.213C265.852 238.101 265.852 237.981 265.852 237.854V233.072H266.816V237.944ZM273.42 236.443C273.434 236.593 273.442 236.742 273.442 236.891C273.442 237.033 273.442 237.224 273.442 237.462V240.8H272.479V237.53C272.479 237.38 272.479 237.238 272.479 237.104C272.479 236.97 272.471 236.828 272.456 236.678C272.426 236.328 272.307 236.04 272.098 235.816C271.896 235.585 271.564 235.469 271.101 235.469C270.87 235.469 270.649 235.517 270.44 235.614C270.231 235.704 270.048 235.857 269.892 236.074C269.735 236.283 269.612 236.563 269.522 236.914C269.432 237.257 269.388 237.683 269.388 238.19V240.8H268.424V234.864H269.388V235.883L269.757 235.2C270.011 235.006 270.254 234.875 270.485 234.808C270.724 234.741 270.997 234.707 271.303 234.707C271.96 234.707 272.464 234.868 272.815 235.189C273.173 235.502 273.375 235.921 273.42 236.443ZM275.545 232.915C275.717 232.915 275.862 232.975 275.982 233.094C276.101 233.214 276.161 233.36 276.161 233.531C276.161 233.703 276.101 233.849 275.982 233.968C275.862 234.088 275.717 234.147 275.545 234.147C275.373 234.147 275.228 234.088 275.108 233.968C274.989 233.849 274.929 233.703 274.929 233.531C274.929 233.36 274.989 233.214 275.108 233.094C275.228 232.975 275.373 232.915 275.545 232.915ZM275.063 240.8V234.864H276.027V240.8H275.063ZM280.342 240.8H279.166L276.915 234.864H277.979L279.793 240.094L281.574 234.864H282.593L280.342 240.8ZM288.27 237.664C288.27 237.709 288.27 237.772 288.27 237.854C288.27 237.929 288.262 238.019 288.247 238.123H283.947C283.969 238.512 284.029 238.84 284.126 239.109C284.223 239.378 284.346 239.594 284.495 239.758C284.652 239.923 284.828 240.042 285.022 240.117C285.223 240.184 285.432 240.218 285.649 240.218C286.037 240.218 286.373 240.102 286.657 239.87C286.941 239.639 287.116 239.31 287.183 238.885H288.191C288.132 239.243 288.02 239.553 287.855 239.814C287.699 240.076 287.501 240.292 287.262 240.464C287.03 240.628 286.773 240.752 286.489 240.834C286.205 240.916 285.91 240.957 285.604 240.957C285.216 240.957 284.857 240.893 284.529 240.766C284.2 240.64 283.917 240.449 283.678 240.195C283.439 239.934 283.248 239.609 283.107 239.221C282.972 238.833 282.905 238.377 282.905 237.854C282.905 237.369 282.976 236.936 283.118 236.555C283.26 236.167 283.454 235.835 283.7 235.558C283.954 235.282 284.253 235.073 284.596 234.931C284.947 234.782 285.324 234.707 285.727 234.707C286.138 234.707 286.5 234.782 286.814 234.931C287.127 235.073 287.392 235.275 287.609 235.536C287.825 235.797 287.99 236.111 288.102 236.477C288.214 236.835 288.27 237.231 288.27 237.664ZM285.705 235.446C285.235 235.446 284.839 235.611 284.518 235.939C284.204 236.268 284.017 236.749 283.958 237.384H287.295C287.251 236.764 287.097 236.286 286.836 235.95C286.575 235.614 286.198 235.446 285.705 235.446ZM291.874 234.73C292.038 234.73 292.173 234.756 292.277 234.808V235.536C292.024 235.521 291.788 235.547 291.572 235.614C291.355 235.682 291.169 235.794 291.012 235.95C290.855 236.1 290.732 236.298 290.642 236.544C290.553 236.79 290.508 237.082 290.508 237.418V240.8H289.545V234.864H290.508V235.794L291.045 234.998C291.307 234.819 291.583 234.73 291.874 234.73ZM294.966 234.707C295.638 234.707 296.153 234.879 296.512 235.222C296.878 235.566 297.091 236.01 297.15 236.555H296.142C296.075 236.204 295.937 235.932 295.728 235.738C295.519 235.544 295.239 235.446 294.888 235.446C294.552 235.446 294.302 235.529 294.137 235.693C293.981 235.857 293.902 236.07 293.902 236.331C293.902 236.63 294.018 236.854 294.249 237.003C294.481 237.145 294.798 237.268 295.201 237.373C295.888 237.552 296.396 237.787 296.725 238.078C297.053 238.37 297.217 238.769 297.217 239.277C297.217 239.553 297.161 239.8 297.049 240.016C296.937 240.225 296.781 240.401 296.579 240.542C296.385 240.677 296.153 240.778 295.885 240.845C295.616 240.92 295.325 240.957 295.011 240.957C294.705 240.957 294.417 240.92 294.149 240.845C293.887 240.778 293.656 240.666 293.454 240.509C293.253 240.352 293.085 240.154 292.95 239.915C292.816 239.676 292.726 239.389 292.681 239.053H293.689C293.772 239.486 293.936 239.788 294.182 239.96C294.436 240.132 294.735 240.218 295.078 240.218C295.399 240.218 295.672 240.147 295.896 240.005C296.12 239.856 296.232 239.639 296.232 239.355C296.232 239.072 296.124 238.844 295.907 238.672C295.691 238.5 295.332 238.347 294.832 238.213C294.563 238.138 294.313 238.056 294.081 237.966C293.85 237.869 293.648 237.754 293.477 237.619C293.305 237.477 293.167 237.313 293.062 237.126C292.965 236.932 292.917 236.705 292.917 236.443C292.917 235.898 293.103 235.473 293.477 235.166C293.857 234.86 294.354 234.707 294.966 234.707ZM298.864 232.915C299.035 232.915 299.181 232.975 299.301 233.094C299.42 233.214 299.48 233.36 299.48 233.531C299.48 233.703 299.42 233.849 299.301 233.968C299.181 234.088 299.035 234.147 298.864 234.147C298.692 234.147 298.546 234.088 298.427 233.968C298.307 233.849 298.248 233.703 298.248 233.531C298.248 233.36 298.307 233.214 298.427 233.094C298.546 232.975 298.692 232.915 298.864 232.915ZM298.382 240.8V234.864H299.345V240.8H298.382ZM302.204 239.064C302.204 239.169 302.204 239.251 302.204 239.31C302.204 239.37 302.208 239.441 302.216 239.523C302.238 239.807 302.32 239.99 302.462 240.072C302.604 240.154 302.865 240.173 303.246 240.128V240.834C303.104 240.856 302.966 240.871 302.832 240.878C302.697 240.886 302.563 240.89 302.428 240.89C302.055 240.89 301.771 240.811 301.577 240.654C301.391 240.49 301.282 240.221 301.252 239.848C301.245 239.766 301.241 239.665 301.241 239.546C301.241 239.426 301.241 239.281 301.241 239.109V235.648H300.446V234.909H301.241V233.531H302.204V234.909H303.313V235.648H302.204V239.064ZM306.97 241.304C306.731 241.939 306.443 242.405 306.107 242.704C305.779 243.003 305.372 243.152 304.887 243.152C304.782 243.152 304.692 243.152 304.618 243.152C304.543 243.152 304.468 243.145 304.394 243.13V242.346C304.468 242.353 304.532 242.357 304.584 242.357C304.636 242.357 304.689 242.357 304.741 242.357C305.04 242.357 305.29 242.282 305.491 242.133C305.7 241.984 305.88 241.711 306.029 241.315L306.107 241.102L303.744 234.864H304.831L306.6 240.083L308.359 234.864H309.411L306.97 241.304ZM313.024 234.707C313.233 234.707 313.404 234.774 313.539 234.909C313.673 235.043 313.74 235.215 313.74 235.424C313.74 235.633 313.673 235.805 313.539 235.939C313.404 236.074 313.233 236.141 313.024 236.141C312.815 236.141 312.643 236.074 312.508 235.939C312.374 235.805 312.307 235.633 312.307 235.424C312.307 235.215 312.374 235.043 312.508 234.909C312.643 234.774 312.815 234.707 313.024 234.707ZM313.024 239.523C313.233 239.523 313.404 239.59 313.539 239.725C313.673 239.859 313.74 240.031 313.74 240.24C313.74 240.449 313.673 240.621 313.539 240.755C313.404 240.89 313.233 240.957 313.024 240.957C312.815 240.957 312.643 240.89 312.508 240.755C312.374 240.621 312.307 240.449 312.307 240.24C312.307 240.031 312.374 239.859 312.508 239.725C312.643 239.59 312.815 239.523 313.024 239.523ZM320.153 235.581C320.556 235.581 320.915 235.648 321.228 235.782C321.549 235.909 321.818 236.089 322.035 236.32C322.259 236.552 322.427 236.828 322.539 237.149C322.658 237.47 322.718 237.821 322.718 238.202C322.718 238.612 322.647 238.989 322.505 239.333C322.371 239.669 322.18 239.956 321.934 240.195C321.695 240.434 321.407 240.621 321.071 240.755C320.743 240.89 320.381 240.957 319.985 240.957C319.126 240.957 318.454 240.669 317.969 240.094C317.491 239.52 317.252 238.59 317.252 237.306C317.252 236.529 317.334 235.865 317.499 235.312C317.663 234.752 317.879 234.297 318.148 233.946C318.424 233.587 318.742 233.326 319.1 233.162C319.466 232.997 319.847 232.915 320.243 232.915C320.571 232.915 320.873 232.964 321.15 233.061C321.433 233.158 321.676 233.3 321.878 233.486C322.087 233.666 322.255 233.886 322.382 234.147C322.516 234.401 322.598 234.685 322.628 234.998L322.639 235.11H321.609L321.587 234.998C321.407 234.117 320.933 233.677 320.164 233.677C319.903 233.677 319.664 233.733 319.447 233.845C319.231 233.957 319.04 234.136 318.876 234.382C318.712 234.629 318.581 234.95 318.484 235.346C318.387 235.734 318.327 236.208 318.305 236.768L318.742 236.074C318.951 235.902 319.167 235.779 319.391 235.704C319.615 235.622 319.869 235.581 320.153 235.581ZM319.985 240.195C320.224 240.195 320.444 240.15 320.646 240.061C320.855 239.971 321.03 239.844 321.172 239.68C321.321 239.508 321.437 239.307 321.519 239.075C321.601 238.844 321.643 238.59 321.643 238.314C321.643 238.045 321.609 237.791 321.542 237.552C321.482 237.313 321.385 237.104 321.251 236.925C321.116 236.746 320.944 236.604 320.735 236.499C320.526 236.395 320.276 236.342 319.985 236.342C319.768 236.342 319.559 236.384 319.358 236.466C319.164 236.548 318.992 236.671 318.843 236.835C318.701 237 318.585 237.205 318.495 237.451C318.413 237.69 318.372 237.97 318.372 238.291C318.372 238.56 318.409 238.81 318.484 239.042C318.566 239.273 318.675 239.475 318.809 239.646C318.951 239.818 319.119 239.953 319.313 240.05C319.515 240.147 319.739 240.195 319.985 240.195Z" fill="#435452"/>
<path d="M203.81 149.996C204.566 150.089 205.177 150.379 205.644 150.864C206.12 151.34 206.358 152.007 206.358 152.866C206.358 153.295 206.288 153.678 206.148 154.014C206.017 154.35 205.835 154.639 205.602 154.882C205.378 155.115 205.112 155.307 204.804 155.456C204.496 155.596 204.165 155.689 203.81 155.736C203.586 155.764 203.376 155.783 203.18 155.792C202.984 155.792 202.755 155.792 202.494 155.792H200.87V159.6H199.33V149.94H202.494C202.755 149.94 202.984 149.945 203.18 149.954C203.376 149.954 203.586 149.968 203.81 149.996ZM203.516 154.49C203.852 154.425 204.137 154.266 204.37 154.014C204.613 153.762 204.734 153.379 204.734 152.866C204.734 152.353 204.613 151.97 204.37 151.718C204.137 151.466 203.852 151.307 203.516 151.242C203.385 151.223 203.236 151.209 203.068 151.2C202.909 151.191 202.732 151.186 202.536 151.186H200.87V154.546H202.536C202.732 154.546 202.909 154.541 203.068 154.532C203.236 154.523 203.385 154.509 203.516 154.49ZM211.655 158.522L211.277 159.32C211.025 159.497 210.74 159.619 210.423 159.684C210.115 159.759 209.784 159.796 209.429 159.796C209.102 159.796 208.794 159.749 208.505 159.656C208.216 159.563 207.959 159.427 207.735 159.25C207.52 159.063 207.348 158.839 207.217 158.578C207.096 158.307 207.035 157.999 207.035 157.654C207.035 156.823 207.366 156.193 208.029 155.764C208.701 155.325 209.746 155.106 211.165 155.106H211.641V154.924C211.641 154.784 211.641 154.649 211.641 154.518C211.641 154.387 211.632 154.252 211.613 154.112C211.594 153.813 211.482 153.571 211.277 153.384C211.081 153.188 210.759 153.09 210.311 153.09C209.863 153.09 209.522 153.211 209.289 153.454C209.056 153.697 208.916 154.051 208.869 154.518H207.329C207.357 154.107 207.446 153.748 207.595 153.44C207.754 153.123 207.964 152.857 208.225 152.642C208.496 152.418 208.808 152.25 209.163 152.138C209.527 152.026 209.919 151.97 210.339 151.97C210.815 151.97 211.221 152.021 211.557 152.124C211.902 152.217 212.187 152.357 212.411 152.544C212.635 152.721 212.803 152.936 212.915 153.188C213.036 153.44 213.111 153.725 213.139 154.042C213.158 154.201 213.167 154.373 213.167 154.56C213.176 154.737 213.181 154.915 213.181 155.092V157.71C213.181 157.99 213.19 158.27 213.209 158.55C213.228 158.83 213.265 159.18 213.321 159.6H211.795L211.655 158.522ZM209.989 158.676C210.474 158.676 210.871 158.517 211.179 158.2C211.487 157.883 211.641 157.421 211.641 156.814V156.128C210.736 156.053 210.012 156.128 209.471 156.352C208.93 156.567 208.659 156.959 208.659 157.528C208.659 157.92 208.776 158.209 209.009 158.396C209.252 158.583 209.578 158.676 209.989 158.676ZM219.186 151.97C219.718 151.97 220.189 152.068 220.6 152.264C221.02 152.451 221.37 152.712 221.65 153.048C221.939 153.384 222.158 153.785 222.308 154.252C222.457 154.709 222.532 155.209 222.532 155.75C222.532 156.431 222.434 157.029 222.238 157.542C222.042 158.046 221.78 158.466 221.454 158.802C221.127 159.138 220.744 159.39 220.306 159.558C219.867 159.717 219.41 159.796 218.934 159.796C218.626 159.796 218.299 159.754 217.954 159.67C217.618 159.595 217.356 159.483 217.17 159.334L216.68 158.592V162.344H215.14V152.166H216.68V153.328L217.24 152.53C217.454 152.353 217.734 152.217 218.08 152.124C218.434 152.021 218.803 151.97 219.186 151.97ZM218.752 158.676C219.368 158.676 219.881 158.443 220.292 157.976C220.702 157.509 220.908 156.814 220.908 155.89C220.908 155.489 220.861 155.12 220.768 154.784C220.674 154.439 220.539 154.14 220.362 153.888C220.194 153.636 219.979 153.44 219.718 153.3C219.456 153.16 219.158 153.09 218.822 153.09C218.532 153.09 218.257 153.141 217.996 153.244C217.744 153.337 217.52 153.491 217.324 153.706C217.128 153.921 216.969 154.201 216.848 154.546C216.736 154.891 216.68 155.311 216.68 155.806V156.184C216.68 156.641 216.74 157.029 216.862 157.346C216.992 157.663 217.156 157.92 217.352 158.116C217.548 158.312 217.767 158.457 218.01 158.55C218.262 158.634 218.509 158.676 218.752 158.676ZM230.302 155.694C230.302 155.769 230.302 155.857 230.302 155.96C230.302 156.063 230.292 156.179 230.274 156.31H224.94C224.968 156.758 225.038 157.131 225.15 157.43C225.262 157.729 225.402 157.971 225.57 158.158C225.747 158.345 225.948 158.48 226.172 158.564C226.396 158.639 226.634 158.676 226.886 158.676C227.334 158.676 227.716 158.55 228.034 158.298C228.36 158.037 228.561 157.668 228.636 157.192H230.19C230.106 157.631 229.961 158.013 229.756 158.34C229.55 158.667 229.298 158.937 229 159.152C228.701 159.367 228.365 159.525 227.992 159.628C227.628 159.74 227.24 159.796 226.83 159.796C226.335 159.796 225.873 159.717 225.444 159.558C225.024 159.399 224.655 159.161 224.338 158.844C224.03 158.517 223.787 158.111 223.61 157.626C223.432 157.131 223.344 156.557 223.344 155.904C223.344 155.316 223.432 154.779 223.61 154.294C223.787 153.809 224.034 153.398 224.352 153.062C224.678 152.717 225.066 152.451 225.514 152.264C225.962 152.068 226.452 151.97 226.984 151.97C227.525 151.97 228.001 152.068 228.412 152.264C228.822 152.451 229.168 152.712 229.448 153.048C229.728 153.384 229.938 153.781 230.078 154.238C230.227 154.686 230.302 155.171 230.302 155.694ZM226.928 153.09C226.396 153.09 225.952 153.267 225.598 153.622C225.252 153.977 225.038 154.513 224.954 155.232H228.72C228.664 154.541 228.486 154.014 228.188 153.65C227.889 153.277 227.469 153.09 226.928 153.09ZM235.083 151.984C235.279 151.984 235.451 152.012 235.601 152.068V153.272C234.891 153.225 234.331 153.393 233.921 153.776C233.51 154.159 233.305 154.812 233.305 155.736V159.6H231.765V152.166H233.305V153.426L233.935 152.404C234.103 152.273 234.289 152.171 234.495 152.096C234.7 152.021 234.896 151.984 235.083 151.984ZM245.353 157.234V159.6H243.827V157.234H239.095V156.436L243.771 149.94H245.353V156.002H246.571V157.234H245.353ZM243.827 151.816C243.724 152.003 243.612 152.189 243.491 152.376C243.379 152.563 243.248 152.754 243.099 152.95L240.901 156.002H243.827V151.816ZM254.601 158.368V159.6H247.867V158.816L251.241 155.414C251.549 155.115 251.811 154.845 252.025 154.602C252.249 154.35 252.431 154.117 252.571 153.902C252.711 153.678 252.814 153.463 252.879 153.258C252.954 153.043 252.991 152.819 252.991 152.586C252.991 152.11 252.861 151.713 252.599 151.396C252.338 151.069 251.941 150.906 251.409 150.906C250.849 150.906 250.429 151.074 250.149 151.41C249.869 151.746 249.697 152.236 249.631 152.88L249.617 153.02H248.077L248.091 152.88C248.194 151.853 248.544 151.074 249.141 150.542C249.739 150.001 250.551 149.73 251.577 149.73C252.091 149.73 252.539 149.8 252.921 149.94C253.304 150.08 253.621 150.271 253.873 150.514C254.135 150.757 254.331 151.046 254.461 151.382C254.592 151.709 254.657 152.063 254.657 152.446C254.657 152.763 254.611 153.067 254.517 153.356C254.433 153.636 254.298 153.925 254.111 154.224C253.925 154.513 253.677 154.826 253.369 155.162C253.071 155.489 252.711 155.857 252.291 156.268L250.163 158.368H254.601Z" fill="#435452"/>
</svg>
